<mxfile host="app.diagrams.net" modified="2021-09-04T13:57:04.552Z" agent="5.0 (Windows NT 10.0; Win64; x64) AppleWebKit/537.36 (KHTML, like Gecko) Chrome/93.0.4577.63 Safari/537.36" etag="Hm52sCxJ6Uceak4AAY02" version="15.0.6" type="github" pages="3">
  <diagram id="o7maPRLRED_KHOLjY9Rb" name="Page-1">
    <mxGraphModel dx="842" dy="1618" grid="1" gridSize="10" guides="1" tooltips="1" connect="1" arrows="1" fold="1" page="1" pageScale="1" pageWidth="827" pageHeight="1169" math="0" shadow="0">
      <root>
        <mxCell id="0" />
        <mxCell id="1" parent="0" />
        <mxCell id="POw8h9ymVtgXD74uZ1rG-1" value="ANALISTA DE CREDITO" style="rounded=0;whiteSpace=wrap;html=1;" vertex="1" parent="1">
          <mxGeometry x="10" width="520" height="60" as="geometry" />
        </mxCell>
        <mxCell id="POw8h9ymVtgXD74uZ1rG-2" value="" style="edgeStyle=orthogonalEdgeStyle;rounded=0;orthogonalLoop=1;jettySize=auto;html=1;" edge="1" parent="1" source="POw8h9ymVtgXD74uZ1rG-3" target="POw8h9ymVtgXD74uZ1rG-7">
          <mxGeometry relative="1" as="geometry" />
        </mxCell>
        <mxCell id="POw8h9ymVtgXD74uZ1rG-3" value="INICIO" style="rounded=1;whiteSpace=wrap;html=1;" vertex="1" parent="1">
          <mxGeometry x="80" y="70" width="60" height="30" as="geometry" />
        </mxCell>
        <mxCell id="POw8h9ymVtgXD74uZ1rG-4" value="-Revisa buro&lt;br&gt;- Revisa historial&lt;br&gt;- Revision registro civil&lt;br&gt;- Revision de judicatura&lt;br&gt;-Analisis socioeconomico&lt;br&gt;-Entrega de requisito" style="rounded=0;whiteSpace=wrap;html=1;" vertex="1" parent="1">
          <mxGeometry x="264" y="200" width="150" height="130" as="geometry" />
        </mxCell>
        <mxCell id="POw8h9ymVtgXD74uZ1rG-5" value="" style="edgeStyle=orthogonalEdgeStyle;rounded=0;orthogonalLoop=1;jettySize=auto;html=1;" edge="1" parent="1" source="POw8h9ymVtgXD74uZ1rG-7" target="POw8h9ymVtgXD74uZ1rG-9">
          <mxGeometry relative="1" as="geometry" />
        </mxCell>
        <mxCell id="POw8h9ymVtgXD74uZ1rG-6" style="edgeStyle=orthogonalEdgeStyle;rounded=0;orthogonalLoop=1;jettySize=auto;html=1;entryX=0.5;entryY=0;entryDx=0;entryDy=0;" edge="1" parent="1" source="POw8h9ymVtgXD74uZ1rG-7" target="POw8h9ymVtgXD74uZ1rG-12">
          <mxGeometry relative="1" as="geometry" />
        </mxCell>
        <mxCell id="POw8h9ymVtgXD74uZ1rG-7" value="Promoción y Publicidad&lt;br&gt;" style="rounded=0;whiteSpace=wrap;html=1;" vertex="1" parent="1">
          <mxGeometry x="50" y="150" width="150" height="30" as="geometry" />
        </mxCell>
        <mxCell id="POw8h9ymVtgXD74uZ1rG-8" value="" style="edgeStyle=orthogonalEdgeStyle;rounded=0;orthogonalLoop=1;jettySize=auto;html=1;" edge="1" parent="1" source="POw8h9ymVtgXD74uZ1rG-9" target="POw8h9ymVtgXD74uZ1rG-4">
          <mxGeometry relative="1" as="geometry" />
        </mxCell>
        <mxCell id="POw8h9ymVtgXD74uZ1rG-9" value="Entrega de requisitos" style="rounded=0;whiteSpace=wrap;html=1;" vertex="1" parent="1">
          <mxGeometry x="264" y="150" width="150" height="30" as="geometry" />
        </mxCell>
        <mxCell id="POw8h9ymVtgXD74uZ1rG-10" value="" style="edgeStyle=orthogonalEdgeStyle;rounded=0;orthogonalLoop=1;jettySize=auto;html=1;" edge="1" parent="1" source="POw8h9ymVtgXD74uZ1rG-12" target="POw8h9ymVtgXD74uZ1rG-13">
          <mxGeometry relative="1" as="geometry" />
        </mxCell>
        <mxCell id="POw8h9ymVtgXD74uZ1rG-11" value="" style="edgeStyle=orthogonalEdgeStyle;rounded=0;orthogonalLoop=1;jettySize=auto;html=1;entryX=0.5;entryY=0;entryDx=0;entryDy=0;" edge="1" parent="1" source="POw8h9ymVtgXD74uZ1rG-12" target="POw8h9ymVtgXD74uZ1rG-22">
          <mxGeometry relative="1" as="geometry" />
        </mxCell>
        <mxCell id="POw8h9ymVtgXD74uZ1rG-12" value="Recepcion de documentos" style="rounded=0;whiteSpace=wrap;html=1;" vertex="1" parent="1">
          <mxGeometry x="50" y="360" width="150" height="30" as="geometry" />
        </mxCell>
        <mxCell id="POw8h9ymVtgXD74uZ1rG-13" value="Revision y validacion de documentos entregados" style="rounded=0;whiteSpace=wrap;html=1;" vertex="1" parent="1">
          <mxGeometry x="240" y="360" width="150" height="30" as="geometry" />
        </mxCell>
        <mxCell id="POw8h9ymVtgXD74uZ1rG-14" value="" style="edgeStyle=orthogonalEdgeStyle;rounded=0;orthogonalLoop=1;jettySize=auto;html=1;" edge="1" parent="1" source="POw8h9ymVtgXD74uZ1rG-16" target="POw8h9ymVtgXD74uZ1rG-19">
          <mxGeometry relative="1" as="geometry" />
        </mxCell>
        <mxCell id="POw8h9ymVtgXD74uZ1rG-15" value="" style="edgeStyle=orthogonalEdgeStyle;rounded=0;orthogonalLoop=1;jettySize=auto;html=1;entryX=0;entryY=0.5;entryDx=0;entryDy=0;exitX=0;exitY=0.5;exitDx=0;exitDy=0;" edge="1" parent="1" source="POw8h9ymVtgXD74uZ1rG-16" target="POw8h9ymVtgXD74uZ1rG-3">
          <mxGeometry relative="1" as="geometry">
            <Array as="points">
              <mxPoint x="30" y="470" />
              <mxPoint x="30" y="85" />
            </Array>
          </mxGeometry>
        </mxCell>
        <mxCell id="POw8h9ymVtgXD74uZ1rG-16" value="Cumple condiciones" style="rhombus;whiteSpace=wrap;html=1;" vertex="1" parent="1">
          <mxGeometry x="100" y="470" width="80" height="80" as="geometry" />
        </mxCell>
        <mxCell id="POw8h9ymVtgXD74uZ1rG-17" value="" style="edgeStyle=orthogonalEdgeStyle;rounded=0;orthogonalLoop=1;jettySize=auto;html=1;" edge="1" parent="1" source="POw8h9ymVtgXD74uZ1rG-19" target="POw8h9ymVtgXD74uZ1rG-47">
          <mxGeometry relative="1" as="geometry" />
        </mxCell>
        <mxCell id="POw8h9ymVtgXD74uZ1rG-18" value="" style="edgeStyle=orthogonalEdgeStyle;rounded=0;orthogonalLoop=1;jettySize=auto;html=1;" edge="1" parent="1" source="POw8h9ymVtgXD74uZ1rG-19" target="POw8h9ymVtgXD74uZ1rG-77">
          <mxGeometry relative="1" as="geometry" />
        </mxCell>
        <mxCell id="POw8h9ymVtgXD74uZ1rG-19" value="Entrega de carpeta" style="rounded=0;whiteSpace=wrap;html=1;" vertex="1" parent="1">
          <mxGeometry x="65" y="600" width="150" height="40" as="geometry" />
        </mxCell>
        <mxCell id="POw8h9ymVtgXD74uZ1rG-20" style="edgeStyle=orthogonalEdgeStyle;rounded=0;orthogonalLoop=1;jettySize=auto;html=1;entryX=0.5;entryY=0;entryDx=0;entryDy=0;" edge="1" parent="1" source="POw8h9ymVtgXD74uZ1rG-22" target="POw8h9ymVtgXD74uZ1rG-16">
          <mxGeometry relative="1" as="geometry" />
        </mxCell>
        <mxCell id="POw8h9ymVtgXD74uZ1rG-21" value="" style="edgeStyle=orthogonalEdgeStyle;rounded=0;orthogonalLoop=1;jettySize=auto;html=1;" edge="1" parent="1" source="POw8h9ymVtgXD74uZ1rG-22" target="POw8h9ymVtgXD74uZ1rG-26">
          <mxGeometry relative="1" as="geometry" />
        </mxCell>
        <mxCell id="POw8h9ymVtgXD74uZ1rG-22" value="Preaprobación de crédito" style="rounded=0;whiteSpace=wrap;html=1;" vertex="1" parent="1">
          <mxGeometry x="50" y="410" width="150" height="40" as="geometry" />
        </mxCell>
        <mxCell id="POw8h9ymVtgXD74uZ1rG-23" value="NO" style="text;html=1;strokeColor=none;fillColor=none;align=center;verticalAlign=middle;whiteSpace=wrap;rounded=0;" vertex="1" parent="1">
          <mxGeometry x="20" y="470" width="40" height="20" as="geometry" />
        </mxCell>
        <mxCell id="POw8h9ymVtgXD74uZ1rG-24" value="SI" style="text;html=1;strokeColor=none;fillColor=none;align=center;verticalAlign=middle;whiteSpace=wrap;rounded=0;" vertex="1" parent="1">
          <mxGeometry x="100" y="540" width="40" height="20" as="geometry" />
        </mxCell>
        <mxCell id="POw8h9ymVtgXD74uZ1rG-25" value="Titular y Garante&lt;br&gt;Confirmacion de direccion&lt;br&gt;Cotejas datos&lt;br&gt;Llenar el registro 7&lt;br&gt;Ref. diario" style="rounded=0;whiteSpace=wrap;html=1;" vertex="1" parent="1">
          <mxGeometry x="710" y="165" width="150" height="80" as="geometry" />
        </mxCell>
        <mxCell id="POw8h9ymVtgXD74uZ1rG-26" value="Informe Cualitativo&lt;br&gt;Balance general y estados de resultados&lt;br&gt;" style="rounded=0;whiteSpace=wrap;html=1;" vertex="1" parent="1">
          <mxGeometry x="240" y="410" width="150" height="40" as="geometry" />
        </mxCell>
        <mxCell id="POw8h9ymVtgXD74uZ1rG-27" style="edgeStyle=orthogonalEdgeStyle;rounded=0;orthogonalLoop=1;jettySize=auto;html=1;entryX=0.5;entryY=0;entryDx=0;entryDy=0;" edge="1" parent="1" source="POw8h9ymVtgXD74uZ1rG-28" target="POw8h9ymVtgXD74uZ1rG-104">
          <mxGeometry relative="1" as="geometry" />
        </mxCell>
        <mxCell id="POw8h9ymVtgXD74uZ1rG-28" value="2" style="ellipse;whiteSpace=wrap;html=1;aspect=fixed;" vertex="1" parent="1">
          <mxGeometry x="585" y="90" width="40" height="40" as="geometry" />
        </mxCell>
        <mxCell id="POw8h9ymVtgXD74uZ1rG-29" value="" style="edgeStyle=orthogonalEdgeStyle;rounded=0;orthogonalLoop=1;jettySize=auto;html=1;" edge="1" parent="1" source="POw8h9ymVtgXD74uZ1rG-31" target="POw8h9ymVtgXD74uZ1rG-33">
          <mxGeometry relative="1" as="geometry" />
        </mxCell>
        <mxCell id="POw8h9ymVtgXD74uZ1rG-30" value="" style="edgeStyle=orthogonalEdgeStyle;rounded=0;orthogonalLoop=1;jettySize=auto;html=1;entryX=0.5;entryY=1;entryDx=0;entryDy=0;" edge="1" parent="1" source="POw8h9ymVtgXD74uZ1rG-31" target="POw8h9ymVtgXD74uZ1rG-110">
          <mxGeometry relative="1" as="geometry">
            <mxPoint x="460" y="310" as="targetPoint" />
          </mxGeometry>
        </mxCell>
        <mxCell id="POw8h9ymVtgXD74uZ1rG-31" value="Recomendable?" style="rhombus;whiteSpace=wrap;html=1;" vertex="1" parent="1">
          <mxGeometry x="542.5" y="285" width="120" height="100" as="geometry" />
        </mxCell>
        <mxCell id="POw8h9ymVtgXD74uZ1rG-32" value="" style="edgeStyle=orthogonalEdgeStyle;rounded=0;orthogonalLoop=1;jettySize=auto;html=1;" edge="1" parent="1" source="POw8h9ymVtgXD74uZ1rG-33" target="POw8h9ymVtgXD74uZ1rG-111">
          <mxGeometry relative="1" as="geometry" />
        </mxCell>
        <mxCell id="POw8h9ymVtgXD74uZ1rG-33" value="Comentar en el registro 7" style="rounded=0;whiteSpace=wrap;html=1;" vertex="1" parent="1">
          <mxGeometry x="527.5" y="430" width="145" height="35" as="geometry" />
        </mxCell>
        <mxCell id="POw8h9ymVtgXD74uZ1rG-34" value="SI" style="text;html=1;strokeColor=none;fillColor=none;align=center;verticalAlign=middle;whiteSpace=wrap;rounded=0;" vertex="1" parent="1">
          <mxGeometry x="612.5" y="385" width="40" height="20" as="geometry" />
        </mxCell>
        <mxCell id="POw8h9ymVtgXD74uZ1rG-35" value="AESOR DE CREDITO" style="rounded=0;whiteSpace=wrap;html=1;" vertex="1" parent="1">
          <mxGeometry x="540" width="280" height="60" as="geometry" />
        </mxCell>
        <mxCell id="POw8h9ymVtgXD74uZ1rG-36" value="" style="edgeStyle=orthogonalEdgeStyle;rounded=0;orthogonalLoop=1;jettySize=auto;html=1;entryX=0.5;entryY=0;entryDx=0;entryDy=0;" edge="1" parent="1" source="POw8h9ymVtgXD74uZ1rG-37" target="POw8h9ymVtgXD74uZ1rG-40">
          <mxGeometry relative="1" as="geometry" />
        </mxCell>
        <mxCell id="POw8h9ymVtgXD74uZ1rG-37" value="3" style="ellipse;whiteSpace=wrap;html=1;aspect=fixed;" vertex="1" parent="1">
          <mxGeometry x="120" y="770" width="40" height="40" as="geometry" />
        </mxCell>
        <mxCell id="POw8h9ymVtgXD74uZ1rG-38" value="" style="edgeStyle=orthogonalEdgeStyle;rounded=0;orthogonalLoop=1;jettySize=auto;html=1;" edge="1" parent="1" source="POw8h9ymVtgXD74uZ1rG-40" target="POw8h9ymVtgXD74uZ1rG-41">
          <mxGeometry relative="1" as="geometry" />
        </mxCell>
        <mxCell id="POw8h9ymVtgXD74uZ1rG-39" value="" style="edgeStyle=orthogonalEdgeStyle;rounded=0;orthogonalLoop=1;jettySize=auto;html=1;" edge="1" parent="1" source="POw8h9ymVtgXD74uZ1rG-40" target="POw8h9ymVtgXD74uZ1rG-44">
          <mxGeometry relative="1" as="geometry" />
        </mxCell>
        <mxCell id="POw8h9ymVtgXD74uZ1rG-40" value="Recomendacion de solicitud" style="rounded=0;whiteSpace=wrap;html=1;" vertex="1" parent="1">
          <mxGeometry x="75" y="850" width="130" height="30" as="geometry" />
        </mxCell>
        <mxCell id="POw8h9ymVtgXD74uZ1rG-41" value="Revisión de inspección" style="rounded=0;whiteSpace=wrap;html=1;" vertex="1" parent="1">
          <mxGeometry x="260" y="850" width="130" height="30" as="geometry" />
        </mxCell>
        <mxCell id="POw8h9ymVtgXD74uZ1rG-42" value="" style="edgeStyle=orthogonalEdgeStyle;rounded=0;orthogonalLoop=1;jettySize=auto;html=1;" edge="1" parent="1" source="POw8h9ymVtgXD74uZ1rG-44" target="POw8h9ymVtgXD74uZ1rG-50">
          <mxGeometry relative="1" as="geometry" />
        </mxCell>
        <mxCell id="POw8h9ymVtgXD74uZ1rG-43" value="" style="edgeStyle=orthogonalEdgeStyle;rounded=0;orthogonalLoop=1;jettySize=auto;html=1;" edge="1" parent="1" source="POw8h9ymVtgXD74uZ1rG-44" target="POw8h9ymVtgXD74uZ1rG-45">
          <mxGeometry relative="1" as="geometry" />
        </mxCell>
        <mxCell id="POw8h9ymVtgXD74uZ1rG-44" value="Ingreso del expediente" style="rounded=0;whiteSpace=wrap;html=1;" vertex="1" parent="1">
          <mxGeometry x="80" y="930" width="130" height="30" as="geometry" />
        </mxCell>
        <mxCell id="POw8h9ymVtgXD74uZ1rG-45" value="Ingreso al Fit&lt;br&gt;Ingreso al Siacc&lt;br&gt;Solicitud de credito (hasta la trx 02-229)" style="rounded=0;whiteSpace=wrap;html=1;" vertex="1" parent="1">
          <mxGeometry x="260" y="900" width="160" height="60" as="geometry" />
        </mxCell>
        <mxCell id="POw8h9ymVtgXD74uZ1rG-46" value="1" style="ellipse;whiteSpace=wrap;html=1;aspect=fixed;" vertex="1" parent="1">
          <mxGeometry x="240" y="90" width="40" height="40" as="geometry" />
        </mxCell>
        <mxCell id="POw8h9ymVtgXD74uZ1rG-47" value="Envío por whatsapp&lt;br&gt;Entrega Fisica&amp;nbsp; de expedientes." style="rounded=0;whiteSpace=wrap;html=1;" vertex="1" parent="1">
          <mxGeometry x="250" y="595" width="150" height="50" as="geometry" />
        </mxCell>
        <mxCell id="POw8h9ymVtgXD74uZ1rG-48" value="" style="edgeStyle=orthogonalEdgeStyle;rounded=0;orthogonalLoop=1;jettySize=auto;html=1;" edge="1" parent="1" source="POw8h9ymVtgXD74uZ1rG-50" target="POw8h9ymVtgXD74uZ1rG-51">
          <mxGeometry relative="1" as="geometry" />
        </mxCell>
        <mxCell id="POw8h9ymVtgXD74uZ1rG-49" value="" style="edgeStyle=orthogonalEdgeStyle;rounded=0;orthogonalLoop=1;jettySize=auto;html=1;" edge="1" parent="1" source="POw8h9ymVtgXD74uZ1rG-50" target="POw8h9ymVtgXD74uZ1rG-78">
          <mxGeometry relative="1" as="geometry" />
        </mxCell>
        <mxCell id="POw8h9ymVtgXD74uZ1rG-50" value="Envio del caso&amp;nbsp;" style="rounded=0;whiteSpace=wrap;html=1;" vertex="1" parent="1">
          <mxGeometry x="80" y="990" width="130" height="30" as="geometry" />
        </mxCell>
        <mxCell id="POw8h9ymVtgXD74uZ1rG-51" value="Registrar el caso en carpeta." style="rounded=0;whiteSpace=wrap;html=1;" vertex="1" parent="1">
          <mxGeometry x="260" y="990" width="130" height="30" as="geometry" />
        </mxCell>
        <mxCell id="POw8h9ymVtgXD74uZ1rG-52" value="" style="edgeStyle=orthogonalEdgeStyle;rounded=0;orthogonalLoop=1;jettySize=auto;html=1;" edge="1" parent="1" source="POw8h9ymVtgXD74uZ1rG-53" target="POw8h9ymVtgXD74uZ1rG-57">
          <mxGeometry relative="1" as="geometry" />
        </mxCell>
        <mxCell id="POw8h9ymVtgXD74uZ1rG-53" value="4" style="ellipse;whiteSpace=wrap;html=1;aspect=fixed;" vertex="1" parent="1">
          <mxGeometry x="1020" y="75" width="40" height="40" as="geometry" />
        </mxCell>
        <mxCell id="POw8h9ymVtgXD74uZ1rG-54" value="FABRICA DE CREDITO" style="rounded=0;whiteSpace=wrap;html=1;" vertex="1" parent="1">
          <mxGeometry x="827" y="-5" width="470" height="60" as="geometry" />
        </mxCell>
        <mxCell id="POw8h9ymVtgXD74uZ1rG-55" value="" style="edgeStyle=orthogonalEdgeStyle;rounded=0;orthogonalLoop=1;jettySize=auto;html=1;" edge="1" parent="1" source="POw8h9ymVtgXD74uZ1rG-57" target="POw8h9ymVtgXD74uZ1rG-58">
          <mxGeometry relative="1" as="geometry" />
        </mxCell>
        <mxCell id="POw8h9ymVtgXD74uZ1rG-56" style="edgeStyle=orthogonalEdgeStyle;rounded=0;orthogonalLoop=1;jettySize=auto;html=1;entryX=0.5;entryY=0;entryDx=0;entryDy=0;" edge="1" parent="1" source="POw8h9ymVtgXD74uZ1rG-57" target="POw8h9ymVtgXD74uZ1rG-60">
          <mxGeometry relative="1" as="geometry" />
        </mxCell>
        <mxCell id="POw8h9ymVtgXD74uZ1rG-57" value="Revision de casos" style="rounded=0;whiteSpace=wrap;html=1;" vertex="1" parent="1">
          <mxGeometry x="975" y="140" width="130" height="30" as="geometry" />
        </mxCell>
        <mxCell id="POw8h9ymVtgXD74uZ1rG-58" value="Generar e imprimir el registro&lt;br&gt;Validar datos&lt;br&gt;Revisión Buro de credito&lt;br&gt;Revision historial&lt;br&gt;Revisar capacidad de pago&lt;br&gt;Levantamiento de informacion&lt;br&gt;Verificar solvencia (escritura de terreno)&lt;br&gt;Cumplimiento condiciones (ficha de producto)&lt;br&gt;" style="rounded=0;whiteSpace=wrap;html=1;" vertex="1" parent="1">
          <mxGeometry x="1160" y="100" width="130" height="220" as="geometry" />
        </mxCell>
        <mxCell id="POw8h9ymVtgXD74uZ1rG-59" value="" style="edgeStyle=orthogonalEdgeStyle;rounded=0;orthogonalLoop=1;jettySize=auto;html=1;" edge="1" parent="1" source="POw8h9ymVtgXD74uZ1rG-60" target="POw8h9ymVtgXD74uZ1rG-79">
          <mxGeometry relative="1" as="geometry" />
        </mxCell>
        <mxCell id="POw8h9ymVtgXD74uZ1rG-60" value="Emite una resolución y recomendación" style="rounded=0;whiteSpace=wrap;html=1;" vertex="1" parent="1">
          <mxGeometry x="975" y="265" width="130" height="30" as="geometry" />
        </mxCell>
        <mxCell id="POw8h9ymVtgXD74uZ1rG-61" value="" style="edgeStyle=orthogonalEdgeStyle;rounded=0;orthogonalLoop=1;jettySize=auto;html=1;" edge="1" parent="1" source="POw8h9ymVtgXD74uZ1rG-62" target="POw8h9ymVtgXD74uZ1rG-68">
          <mxGeometry relative="1" as="geometry" />
        </mxCell>
        <mxCell id="POw8h9ymVtgXD74uZ1rG-62" value="5" style="ellipse;whiteSpace=wrap;html=1;aspect=fixed;" vertex="1" parent="1">
          <mxGeometry x="1492.5" y="65" width="40" height="40" as="geometry" />
        </mxCell>
        <mxCell id="POw8h9ymVtgXD74uZ1rG-63" value="COMITE DE CREDITO" style="rounded=0;whiteSpace=wrap;html=1;" vertex="1" parent="1">
          <mxGeometry x="1310" width="410" height="60" as="geometry" />
        </mxCell>
        <mxCell id="POw8h9ymVtgXD74uZ1rG-64" value="" style="edgeStyle=orthogonalEdgeStyle;rounded=0;orthogonalLoop=1;jettySize=auto;html=1;" edge="1" parent="1" source="POw8h9ymVtgXD74uZ1rG-65">
          <mxGeometry relative="1" as="geometry">
            <mxPoint x="1527" y="380" as="targetPoint" />
          </mxGeometry>
        </mxCell>
        <mxCell id="POw8h9ymVtgXD74uZ1rG-65" value="Aprobado?" style="rhombus;whiteSpace=wrap;html=1;" vertex="1" parent="1">
          <mxGeometry x="1467.5" y="220" width="120" height="100" as="geometry" />
        </mxCell>
        <mxCell id="POw8h9ymVtgXD74uZ1rG-66" value="SI" style="text;html=1;strokeColor=none;fillColor=none;align=center;verticalAlign=middle;whiteSpace=wrap;rounded=0;" vertex="1" parent="1">
          <mxGeometry x="1550" y="312.5" width="40" height="20" as="geometry" />
        </mxCell>
        <mxCell id="POw8h9ymVtgXD74uZ1rG-67" value="" style="edgeStyle=orthogonalEdgeStyle;rounded=0;orthogonalLoop=1;jettySize=auto;html=1;" edge="1" parent="1" source="POw8h9ymVtgXD74uZ1rG-68" target="POw8h9ymVtgXD74uZ1rG-65">
          <mxGeometry relative="1" as="geometry" />
        </mxCell>
        <mxCell id="POw8h9ymVtgXD74uZ1rG-68" value="Resolucion comite" style="rounded=0;whiteSpace=wrap;html=1;" vertex="1" parent="1">
          <mxGeometry x="1455" y="152.5" width="145" height="35" as="geometry" />
        </mxCell>
        <mxCell id="POw8h9ymVtgXD74uZ1rG-69" value="6" style="ellipse;whiteSpace=wrap;html=1;aspect=fixed;" vertex="1" parent="1">
          <mxGeometry x="1510" y="385" width="40" height="40" as="geometry" />
        </mxCell>
        <mxCell id="POw8h9ymVtgXD74uZ1rG-70" value="" style="edgeStyle=orthogonalEdgeStyle;rounded=0;orthogonalLoop=1;jettySize=auto;html=1;" edge="1" parent="1" source="POw8h9ymVtgXD74uZ1rG-71" target="POw8h9ymVtgXD74uZ1rG-74">
          <mxGeometry relative="1" as="geometry" />
        </mxCell>
        <mxCell id="POw8h9ymVtgXD74uZ1rG-71" value="6" style="ellipse;whiteSpace=wrap;html=1;aspect=fixed;" vertex="1" parent="1">
          <mxGeometry x="1025" y="482" width="40" height="40" as="geometry" />
        </mxCell>
        <mxCell id="POw8h9ymVtgXD74uZ1rG-72" value="" style="edgeStyle=orthogonalEdgeStyle;rounded=0;orthogonalLoop=1;jettySize=auto;html=1;" edge="1" parent="1" source="POw8h9ymVtgXD74uZ1rG-74" target="POw8h9ymVtgXD74uZ1rG-75">
          <mxGeometry relative="1" as="geometry" />
        </mxCell>
        <mxCell id="POw8h9ymVtgXD74uZ1rG-73" value="" style="edgeStyle=orthogonalEdgeStyle;rounded=0;orthogonalLoop=1;jettySize=auto;html=1;" edge="1" parent="1" source="POw8h9ymVtgXD74uZ1rG-74" target="POw8h9ymVtgXD74uZ1rG-76">
          <mxGeometry relative="1" as="geometry" />
        </mxCell>
        <mxCell id="POw8h9ymVtgXD74uZ1rG-74" value="Verificación y aprobacion solicitud" style="rounded=0;whiteSpace=wrap;html=1;" vertex="1" parent="1">
          <mxGeometry x="972.5" y="567" width="145" height="35" as="geometry" />
        </mxCell>
        <mxCell id="POw8h9ymVtgXD74uZ1rG-75" value="02-226&lt;br&gt;02-227&lt;br&gt;02-228&lt;br&gt;09-101" style="rounded=0;whiteSpace=wrap;html=1;" vertex="1" parent="1">
          <mxGeometry x="1165" y="554.5" width="145" height="60" as="geometry" />
        </mxCell>
        <mxCell id="POw8h9ymVtgXD74uZ1rG-76" value="7" style="ellipse;whiteSpace=wrap;html=1;aspect=fixed;" vertex="1" parent="1">
          <mxGeometry x="1025" y="647" width="40" height="40" as="geometry" />
        </mxCell>
        <mxCell id="POw8h9ymVtgXD74uZ1rG-77" value="2" style="ellipse;whiteSpace=wrap;html=1;aspect=fixed;" vertex="1" parent="1">
          <mxGeometry x="120" y="680" width="40" height="40" as="geometry" />
        </mxCell>
        <mxCell id="POw8h9ymVtgXD74uZ1rG-78" value="4" style="ellipse;whiteSpace=wrap;html=1;aspect=fixed;" vertex="1" parent="1">
          <mxGeometry x="125" y="1050" width="40" height="40" as="geometry" />
        </mxCell>
        <mxCell id="POw8h9ymVtgXD74uZ1rG-79" value="5" style="ellipse;whiteSpace=wrap;html=1;aspect=fixed;" vertex="1" parent="1">
          <mxGeometry x="1020" y="350" width="40" height="40" as="geometry" />
        </mxCell>
        <mxCell id="POw8h9ymVtgXD74uZ1rG-80" value="" style="edgeStyle=orthogonalEdgeStyle;rounded=0;orthogonalLoop=1;jettySize=auto;html=1;" edge="1" parent="1" source="POw8h9ymVtgXD74uZ1rG-81" target="POw8h9ymVtgXD74uZ1rG-84">
          <mxGeometry relative="1" as="geometry" />
        </mxCell>
        <mxCell id="POw8h9ymVtgXD74uZ1rG-81" value="7" style="ellipse;whiteSpace=wrap;html=1;aspect=fixed;" vertex="1" parent="1">
          <mxGeometry x="119" y="1290" width="40" height="40" as="geometry" />
        </mxCell>
        <mxCell id="POw8h9ymVtgXD74uZ1rG-82" value="" style="edgeStyle=orthogonalEdgeStyle;rounded=0;orthogonalLoop=1;jettySize=auto;html=1;" edge="1" parent="1" source="POw8h9ymVtgXD74uZ1rG-84" target="POw8h9ymVtgXD74uZ1rG-85">
          <mxGeometry relative="1" as="geometry" />
        </mxCell>
        <mxCell id="POw8h9ymVtgXD74uZ1rG-83" value="" style="edgeStyle=orthogonalEdgeStyle;rounded=0;orthogonalLoop=1;jettySize=auto;html=1;" edge="1" parent="1" source="POw8h9ymVtgXD74uZ1rG-84" target="POw8h9ymVtgXD74uZ1rG-88">
          <mxGeometry relative="1" as="geometry" />
        </mxCell>
        <mxCell id="POw8h9ymVtgXD74uZ1rG-84" value="Desembolso" style="rounded=0;whiteSpace=wrap;html=1;" vertex="1" parent="1">
          <mxGeometry x="79" y="1400" width="130" height="30" as="geometry" />
        </mxCell>
        <mxCell id="POw8h9ymVtgXD74uZ1rG-85" value="Pagaré&lt;br&gt;Orden de pago&lt;br&gt;Tabla de pagos&lt;br&gt;Encuesta de satisfaccion&lt;br&gt;" style="rounded=0;whiteSpace=wrap;html=1;" vertex="1" parent="1">
          <mxGeometry x="274" y="1330" width="130" height="100" as="geometry" />
        </mxCell>
        <mxCell id="POw8h9ymVtgXD74uZ1rG-86" value="" style="edgeStyle=orthogonalEdgeStyle;rounded=0;orthogonalLoop=1;jettySize=auto;html=1;" edge="1" parent="1" source="POw8h9ymVtgXD74uZ1rG-88" target="POw8h9ymVtgXD74uZ1rG-89">
          <mxGeometry relative="1" as="geometry" />
        </mxCell>
        <mxCell id="POw8h9ymVtgXD74uZ1rG-87" value="" style="edgeStyle=orthogonalEdgeStyle;rounded=0;orthogonalLoop=1;jettySize=auto;html=1;" edge="1" parent="1" source="POw8h9ymVtgXD74uZ1rG-88" target="POw8h9ymVtgXD74uZ1rG-90">
          <mxGeometry relative="1" as="geometry" />
        </mxCell>
        <mxCell id="POw8h9ymVtgXD74uZ1rG-88" value="Cierre de caso" style="rounded=0;whiteSpace=wrap;html=1;" vertex="1" parent="1">
          <mxGeometry x="79" y="1490" width="130" height="30" as="geometry" />
        </mxCell>
        <mxCell id="POw8h9ymVtgXD74uZ1rG-89" value="Escanear documentos de desembolso" style="rounded=0;whiteSpace=wrap;html=1;" vertex="1" parent="1">
          <mxGeometry x="284" y="1480" width="130" height="30" as="geometry" />
        </mxCell>
        <mxCell id="POw8h9ymVtgXD74uZ1rG-90" value="8" style="ellipse;whiteSpace=wrap;html=1;aspect=fixed;" vertex="1" parent="1">
          <mxGeometry x="124" y="1580" width="40" height="40" as="geometry" />
        </mxCell>
        <mxCell id="POw8h9ymVtgXD74uZ1rG-91" value="ARCHIVO" style="rounded=0;whiteSpace=wrap;html=1;" vertex="1" parent="1">
          <mxGeometry x="1750" width="550" height="60" as="geometry" />
        </mxCell>
        <mxCell id="POw8h9ymVtgXD74uZ1rG-92" value="" style="edgeStyle=orthogonalEdgeStyle;rounded=0;orthogonalLoop=1;jettySize=auto;html=1;" edge="1" parent="1" source="POw8h9ymVtgXD74uZ1rG-93" target="POw8h9ymVtgXD74uZ1rG-96">
          <mxGeometry relative="1" as="geometry" />
        </mxCell>
        <mxCell id="POw8h9ymVtgXD74uZ1rG-93" value="8" style="ellipse;whiteSpace=wrap;html=1;aspect=fixed;" vertex="1" parent="1">
          <mxGeometry x="1935" y="75" width="40" height="40" as="geometry" />
        </mxCell>
        <mxCell id="POw8h9ymVtgXD74uZ1rG-94" value="" style="edgeStyle=orthogonalEdgeStyle;rounded=0;orthogonalLoop=1;jettySize=auto;html=1;" edge="1" parent="1" source="POw8h9ymVtgXD74uZ1rG-96" target="POw8h9ymVtgXD74uZ1rG-97">
          <mxGeometry relative="1" as="geometry" />
        </mxCell>
        <mxCell id="POw8h9ymVtgXD74uZ1rG-95" value="" style="edgeStyle=orthogonalEdgeStyle;rounded=0;orthogonalLoop=1;jettySize=auto;html=1;" edge="1" parent="1" source="POw8h9ymVtgXD74uZ1rG-96" target="POw8h9ymVtgXD74uZ1rG-98">
          <mxGeometry relative="1" as="geometry" />
        </mxCell>
        <mxCell id="POw8h9ymVtgXD74uZ1rG-96" value="Envió a custodio (Jefe de Oficina)" style="rounded=0;whiteSpace=wrap;html=1;" vertex="1" parent="1">
          <mxGeometry x="1882.5" y="165" width="145" height="35" as="geometry" />
        </mxCell>
        <mxCell id="POw8h9ymVtgXD74uZ1rG-97" value="Entrega de pagare semanal&lt;br&gt;envio de archivos con documentos de desembolso" style="rounded=0;whiteSpace=wrap;html=1;" vertex="1" parent="1">
          <mxGeometry x="2120" y="130" width="145" height="105" as="geometry" />
        </mxCell>
        <mxCell id="POw8h9ymVtgXD74uZ1rG-98" value="FIN" style="ellipse;whiteSpace=wrap;html=1;aspect=fixed;" vertex="1" parent="1">
          <mxGeometry x="1935" y="255" width="40" height="40" as="geometry" />
        </mxCell>
        <mxCell id="POw8h9ymVtgXD74uZ1rG-99" value="30 min" style="text;html=1;strokeColor=none;fillColor=none;align=center;verticalAlign=middle;whiteSpace=wrap;rounded=0;" vertex="1" parent="1">
          <mxGeometry x="50" y="330" width="40" height="20" as="geometry" />
        </mxCell>
        <mxCell id="POw8h9ymVtgXD74uZ1rG-100" value="30 min" style="text;html=1;strokeColor=none;fillColor=none;align=center;verticalAlign=middle;whiteSpace=wrap;rounded=0;" vertex="1" parent="1">
          <mxGeometry x="50" y="390" width="40" height="20" as="geometry" />
        </mxCell>
        <mxCell id="POw8h9ymVtgXD74uZ1rG-101" value="2horas" style="text;html=1;strokeColor=none;fillColor=none;align=center;verticalAlign=middle;whiteSpace=wrap;rounded=0;" vertex="1" parent="1">
          <mxGeometry x="502.5" y="120" width="40" height="20" as="geometry" />
        </mxCell>
        <mxCell id="POw8h9ymVtgXD74uZ1rG-102" value="" style="edgeStyle=orthogonalEdgeStyle;rounded=0;orthogonalLoop=1;jettySize=auto;html=1;" edge="1" parent="1" source="POw8h9ymVtgXD74uZ1rG-104" target="POw8h9ymVtgXD74uZ1rG-25">
          <mxGeometry relative="1" as="geometry" />
        </mxCell>
        <mxCell id="POw8h9ymVtgXD74uZ1rG-103" value="" style="edgeStyle=orthogonalEdgeStyle;rounded=0;orthogonalLoop=1;jettySize=auto;html=1;" edge="1" parent="1" source="POw8h9ymVtgXD74uZ1rG-104" target="POw8h9ymVtgXD74uZ1rG-31">
          <mxGeometry relative="1" as="geometry" />
        </mxCell>
        <mxCell id="POw8h9ymVtgXD74uZ1rG-104" value="Proceso de inspector" style="rounded=0;whiteSpace=wrap;html=1;" vertex="1" parent="1">
          <mxGeometry x="532.5" y="187.5" width="145" height="35" as="geometry" />
        </mxCell>
        <mxCell id="POw8h9ymVtgXD74uZ1rG-105" value="30min" style="text;html=1;strokeColor=none;fillColor=none;align=center;verticalAlign=middle;whiteSpace=wrap;rounded=0;" vertex="1" parent="1">
          <mxGeometry x="65" y="820" width="40" height="20" as="geometry" />
        </mxCell>
        <mxCell id="POw8h9ymVtgXD74uZ1rG-106" value="1h30" style="text;html=1;strokeColor=none;fillColor=none;align=center;verticalAlign=middle;whiteSpace=wrap;rounded=0;" vertex="1" parent="1">
          <mxGeometry x="65" y="900" width="40" height="20" as="geometry" />
        </mxCell>
        <mxCell id="POw8h9ymVtgXD74uZ1rG-107" value="20min" style="text;html=1;strokeColor=none;fillColor=none;align=center;verticalAlign=middle;whiteSpace=wrap;rounded=0;" vertex="1" parent="1">
          <mxGeometry x="975" y="115" width="40" height="20" as="geometry" />
        </mxCell>
        <mxCell id="POw8h9ymVtgXD74uZ1rG-108" value="10min" style="text;html=1;strokeColor=none;fillColor=none;align=center;verticalAlign=middle;whiteSpace=wrap;rounded=0;" vertex="1" parent="1">
          <mxGeometry x="970" y="245" width="40" height="20" as="geometry" />
        </mxCell>
        <mxCell id="POw8h9ymVtgXD74uZ1rG-109" value="NO" style="text;html=1;strokeColor=none;fillColor=none;align=center;verticalAlign=middle;whiteSpace=wrap;rounded=0;" vertex="1" parent="1">
          <mxGeometry x="502.5" y="310" width="40" height="20" as="geometry" />
        </mxCell>
        <mxCell id="POw8h9ymVtgXD74uZ1rG-110" value="1" style="ellipse;whiteSpace=wrap;html=1;aspect=fixed;" vertex="1" parent="1">
          <mxGeometry x="450" y="265" width="40" height="40" as="geometry" />
        </mxCell>
        <mxCell id="POw8h9ymVtgXD74uZ1rG-111" value="3" style="ellipse;whiteSpace=wrap;html=1;aspect=fixed;" vertex="1" parent="1">
          <mxGeometry x="572.5" y="510" width="40" height="40" as="geometry" />
        </mxCell>
        <mxCell id="POw8h9ymVtgXD74uZ1rG-112" value="" style="rhombus;whiteSpace=wrap;html=1;" vertex="1" parent="1">
          <mxGeometry x="527.5" y="950" width="80" height="80" as="geometry" />
        </mxCell>
      </root>
    </mxGraphModel>
  </diagram>
  <diagram name="REV1" id="sTplErcCpJZNw3K3tlBP">
    <mxGraphModel dx="1669" dy="1618" grid="1" gridSize="10" guides="1" tooltips="1" connect="1" arrows="1" fold="1" page="1" pageScale="1" pageWidth="827" pageHeight="1169" math="0" shadow="0">
      <root>
        <mxCell id="2IcstIMDx6z1O8IG73S6-0" />
        <mxCell id="2IcstIMDx6z1O8IG73S6-1" parent="2IcstIMDx6z1O8IG73S6-0" />
        <mxCell id="2IcstIMDx6z1O8IG73S6-3" value="" style="edgeStyle=orthogonalEdgeStyle;rounded=0;orthogonalLoop=1;jettySize=auto;html=1;exitX=0.5;exitY=1;exitDx=0;exitDy=0;" parent="2IcstIMDx6z1O8IG73S6-1" source="2IcstIMDx6z1O8IG73S6-47" target="2IcstIMDx6z1O8IG73S6-8" edge="1">
          <mxGeometry relative="1" as="geometry" />
        </mxCell>
        <mxCell id="2IcstIMDx6z1O8IG73S6-5" value="-Revisa buro&lt;br&gt;- Revisa historial&lt;br&gt;- Revision registro civil&lt;br&gt;- Revision de Consejo de la Judicatura&lt;br&gt;-Analisis socioeconomico&lt;br&gt;-Entrega de requisito" style="rounded=0;whiteSpace=wrap;html=1;" parent="2IcstIMDx6z1O8IG73S6-1" vertex="1">
          <mxGeometry x="264" y="200" width="150" height="130" as="geometry" />
        </mxCell>
        <mxCell id="2IcstIMDx6z1O8IG73S6-6" value="" style="edgeStyle=orthogonalEdgeStyle;rounded=0;orthogonalLoop=1;jettySize=auto;html=1;" parent="2IcstIMDx6z1O8IG73S6-1" source="2IcstIMDx6z1O8IG73S6-8" target="2IcstIMDx6z1O8IG73S6-10" edge="1">
          <mxGeometry relative="1" as="geometry" />
        </mxCell>
        <mxCell id="2IcstIMDx6z1O8IG73S6-7" style="edgeStyle=orthogonalEdgeStyle;rounded=0;orthogonalLoop=1;jettySize=auto;html=1;entryX=0.5;entryY=0;entryDx=0;entryDy=0;" parent="2IcstIMDx6z1O8IG73S6-1" source="2IcstIMDx6z1O8IG73S6-8" target="2IcstIMDx6z1O8IG73S6-13" edge="1">
          <mxGeometry relative="1" as="geometry" />
        </mxCell>
        <mxCell id="2IcstIMDx6z1O8IG73S6-8" value="Promoción y Publicidad&lt;br&gt;" style="rounded=0;whiteSpace=wrap;html=1;" parent="2IcstIMDx6z1O8IG73S6-1" vertex="1">
          <mxGeometry x="50" y="150" width="150" height="30" as="geometry" />
        </mxCell>
        <mxCell id="2IcstIMDx6z1O8IG73S6-9" value="" style="edgeStyle=orthogonalEdgeStyle;rounded=0;orthogonalLoop=1;jettySize=auto;html=1;" parent="2IcstIMDx6z1O8IG73S6-1" source="2IcstIMDx6z1O8IG73S6-10" target="2IcstIMDx6z1O8IG73S6-5" edge="1">
          <mxGeometry relative="1" as="geometry" />
        </mxCell>
        <mxCell id="2IcstIMDx6z1O8IG73S6-10" value="Entrega de requisitos" style="rounded=0;whiteSpace=wrap;html=1;" parent="2IcstIMDx6z1O8IG73S6-1" vertex="1">
          <mxGeometry x="264" y="150" width="150" height="30" as="geometry" />
        </mxCell>
        <mxCell id="2IcstIMDx6z1O8IG73S6-11" value="" style="edgeStyle=orthogonalEdgeStyle;rounded=0;orthogonalLoop=1;jettySize=auto;html=1;" parent="2IcstIMDx6z1O8IG73S6-1" source="2IcstIMDx6z1O8IG73S6-13" target="2IcstIMDx6z1O8IG73S6-14" edge="1">
          <mxGeometry relative="1" as="geometry" />
        </mxCell>
        <mxCell id="2IcstIMDx6z1O8IG73S6-12" value="" style="edgeStyle=orthogonalEdgeStyle;rounded=0;orthogonalLoop=1;jettySize=auto;html=1;entryX=0.5;entryY=0;entryDx=0;entryDy=0;" parent="2IcstIMDx6z1O8IG73S6-1" source="2IcstIMDx6z1O8IG73S6-13" target="2IcstIMDx6z1O8IG73S6-23" edge="1">
          <mxGeometry relative="1" as="geometry" />
        </mxCell>
        <mxCell id="2IcstIMDx6z1O8IG73S6-13" value="Recepcion de documentos" style="rounded=0;whiteSpace=wrap;html=1;" parent="2IcstIMDx6z1O8IG73S6-1" vertex="1">
          <mxGeometry x="50" y="360" width="150" height="30" as="geometry" />
        </mxCell>
        <mxCell id="2IcstIMDx6z1O8IG73S6-14" value="Revision y validacion de documentos entregados" style="rounded=0;whiteSpace=wrap;html=1;" parent="2IcstIMDx6z1O8IG73S6-1" vertex="1">
          <mxGeometry x="240" y="360" width="150" height="30" as="geometry" />
        </mxCell>
        <mxCell id="2IcstIMDx6z1O8IG73S6-21" style="edgeStyle=orthogonalEdgeStyle;rounded=0;orthogonalLoop=1;jettySize=auto;html=1;entryX=0.5;entryY=0;entryDx=0;entryDy=0;" parent="2IcstIMDx6z1O8IG73S6-1" source="2IcstIMDx6z1O8IG73S6-23" target="2IcstIMDx6z1O8IG73S6-17" edge="1">
          <mxGeometry relative="1" as="geometry" />
        </mxCell>
        <mxCell id="2IcstIMDx6z1O8IG73S6-22" value="" style="edgeStyle=orthogonalEdgeStyle;rounded=0;orthogonalLoop=1;jettySize=auto;html=1;" parent="2IcstIMDx6z1O8IG73S6-1" source="2IcstIMDx6z1O8IG73S6-23" target="2IcstIMDx6z1O8IG73S6-27" edge="1">
          <mxGeometry relative="1" as="geometry" />
        </mxCell>
        <mxCell id="2IcstIMDx6z1O8IG73S6-23" value="Preaprobación de crédito" style="rounded=0;whiteSpace=wrap;html=1;" parent="2IcstIMDx6z1O8IG73S6-1" vertex="1">
          <mxGeometry x="50" y="410" width="150" height="40" as="geometry" />
        </mxCell>
        <mxCell id="2IcstIMDx6z1O8IG73S6-27" value="Informe Cualitativo&lt;br&gt;Balance general y estados de resultados&lt;br&gt;Capacidad de pago" style="rounded=0;whiteSpace=wrap;html=1;" parent="2IcstIMDx6z1O8IG73S6-1" vertex="1">
          <mxGeometry x="240" y="410" width="150" height="60" as="geometry" />
        </mxCell>
        <mxCell id="2IcstIMDx6z1O8IG73S6-37" value="" style="edgeStyle=orthogonalEdgeStyle;rounded=0;orthogonalLoop=1;jettySize=auto;html=1;entryX=0.5;entryY=0;entryDx=0;entryDy=0;" parent="2IcstIMDx6z1O8IG73S6-1" source="2IcstIMDx6z1O8IG73S6-38" target="2IcstIMDx6z1O8IG73S6-41" edge="1">
          <mxGeometry relative="1" as="geometry" />
        </mxCell>
        <mxCell id="2IcstIMDx6z1O8IG73S6-38" value="3" style="ellipse;whiteSpace=wrap;html=1;aspect=fixed;" parent="2IcstIMDx6z1O8IG73S6-1" vertex="1">
          <mxGeometry x="120" y="770" width="40" height="40" as="geometry" />
        </mxCell>
        <mxCell id="2IcstIMDx6z1O8IG73S6-39" value="" style="edgeStyle=orthogonalEdgeStyle;rounded=0;orthogonalLoop=1;jettySize=auto;html=1;" parent="2IcstIMDx6z1O8IG73S6-1" source="2IcstIMDx6z1O8IG73S6-41" target="2IcstIMDx6z1O8IG73S6-42" edge="1">
          <mxGeometry relative="1" as="geometry" />
        </mxCell>
        <mxCell id="2IcstIMDx6z1O8IG73S6-40" value="" style="edgeStyle=orthogonalEdgeStyle;rounded=0;orthogonalLoop=1;jettySize=auto;html=1;entryX=0.5;entryY=0;entryDx=0;entryDy=0;" parent="2IcstIMDx6z1O8IG73S6-1" source="2IcstIMDx6z1O8IG73S6-41" target="z_J2zLSmfvoNL0WnO1Q8-3" edge="1">
          <mxGeometry relative="1" as="geometry" />
        </mxCell>
        <mxCell id="2IcstIMDx6z1O8IG73S6-41" value="Recomendacion de solicitud" style="rounded=0;whiteSpace=wrap;html=1;" parent="2IcstIMDx6z1O8IG73S6-1" vertex="1">
          <mxGeometry x="75" y="850" width="130" height="30" as="geometry" />
        </mxCell>
        <mxCell id="2IcstIMDx6z1O8IG73S6-42" value="Revisión de inspección" style="rounded=0;whiteSpace=wrap;html=1;" parent="2IcstIMDx6z1O8IG73S6-1" vertex="1">
          <mxGeometry x="260" y="850" width="130" height="30" as="geometry" />
        </mxCell>
        <mxCell id="2IcstIMDx6z1O8IG73S6-43" value="" style="edgeStyle=orthogonalEdgeStyle;rounded=0;orthogonalLoop=1;jettySize=auto;html=1;" parent="2IcstIMDx6z1O8IG73S6-1" source="2IcstIMDx6z1O8IG73S6-45" target="2IcstIMDx6z1O8IG73S6-51" edge="1">
          <mxGeometry relative="1" as="geometry" />
        </mxCell>
        <mxCell id="2IcstIMDx6z1O8IG73S6-44" value="" style="edgeStyle=orthogonalEdgeStyle;rounded=0;orthogonalLoop=1;jettySize=auto;html=1;" parent="2IcstIMDx6z1O8IG73S6-1" source="2IcstIMDx6z1O8IG73S6-45" target="2IcstIMDx6z1O8IG73S6-46" edge="1">
          <mxGeometry relative="1" as="geometry" />
        </mxCell>
        <mxCell id="2IcstIMDx6z1O8IG73S6-45" value="Ingreso del expediente" style="rounded=0;whiteSpace=wrap;html=1;" parent="2IcstIMDx6z1O8IG73S6-1" vertex="1">
          <mxGeometry x="75" y="1010" width="130" height="30" as="geometry" />
        </mxCell>
        <mxCell id="2IcstIMDx6z1O8IG73S6-46" value="Ingreso al Fit&lt;br&gt;Ingreso al Siacc&lt;br&gt;Solicitud de credito (hasta la trx 02-229)" style="rounded=0;whiteSpace=wrap;html=1;" parent="2IcstIMDx6z1O8IG73S6-1" vertex="1">
          <mxGeometry x="255" y="980" width="160" height="60" as="geometry" />
        </mxCell>
        <mxCell id="2IcstIMDx6z1O8IG73S6-49" value="" style="edgeStyle=orthogonalEdgeStyle;rounded=0;orthogonalLoop=1;jettySize=auto;html=1;" parent="2IcstIMDx6z1O8IG73S6-1" source="2IcstIMDx6z1O8IG73S6-51" target="2IcstIMDx6z1O8IG73S6-52" edge="1">
          <mxGeometry relative="1" as="geometry" />
        </mxCell>
        <mxCell id="2IcstIMDx6z1O8IG73S6-50" value="" style="edgeStyle=orthogonalEdgeStyle;rounded=0;orthogonalLoop=1;jettySize=auto;html=1;" parent="2IcstIMDx6z1O8IG73S6-1" source="2IcstIMDx6z1O8IG73S6-51" target="2IcstIMDx6z1O8IG73S6-79" edge="1">
          <mxGeometry relative="1" as="geometry">
            <mxPoint x="140" y="1120" as="targetPoint" />
          </mxGeometry>
        </mxCell>
        <mxCell id="2IcstIMDx6z1O8IG73S6-51" value="Envío del caso SIACC" style="rounded=0;whiteSpace=wrap;html=1;" parent="2IcstIMDx6z1O8IG73S6-1" vertex="1">
          <mxGeometry x="75" y="1070" width="130" height="30" as="geometry" />
        </mxCell>
        <mxCell id="2IcstIMDx6z1O8IG73S6-52" value="Registrar el caso en carpeta.&lt;br&gt;Tipo de crédito (quirografario, hipotecario, prendario, titulo de valor)" style="rounded=0;whiteSpace=wrap;html=1;" parent="2IcstIMDx6z1O8IG73S6-1" vertex="1">
          <mxGeometry x="255" y="1070" width="130" height="100" as="geometry" />
        </mxCell>
        <mxCell id="2IcstIMDx6z1O8IG73S6-53" value="" style="edgeStyle=orthogonalEdgeStyle;rounded=0;orthogonalLoop=1;jettySize=auto;html=1;" parent="2IcstIMDx6z1O8IG73S6-1" source="2IcstIMDx6z1O8IG73S6-54" target="2IcstIMDx6z1O8IG73S6-58" edge="1">
          <mxGeometry relative="1" as="geometry" />
        </mxCell>
        <mxCell id="2IcstIMDx6z1O8IG73S6-54" value="4" style="ellipse;whiteSpace=wrap;html=1;aspect=fixed;" parent="2IcstIMDx6z1O8IG73S6-1" vertex="1">
          <mxGeometry x="1020" y="60" width="40" height="40" as="geometry" />
        </mxCell>
        <mxCell id="2IcstIMDx6z1O8IG73S6-56" value="" style="edgeStyle=orthogonalEdgeStyle;rounded=0;orthogonalLoop=1;jettySize=auto;html=1;" parent="2IcstIMDx6z1O8IG73S6-1" source="2IcstIMDx6z1O8IG73S6-58" target="2IcstIMDx6z1O8IG73S6-59" edge="1">
          <mxGeometry relative="1" as="geometry" />
        </mxCell>
        <mxCell id="2IcstIMDx6z1O8IG73S6-57" style="edgeStyle=orthogonalEdgeStyle;rounded=0;orthogonalLoop=1;jettySize=auto;html=1;entryX=0.5;entryY=0;entryDx=0;entryDy=0;" parent="2IcstIMDx6z1O8IG73S6-1" source="2IcstIMDx6z1O8IG73S6-58" target="2IcstIMDx6z1O8IG73S6-61" edge="1">
          <mxGeometry relative="1" as="geometry" />
        </mxCell>
        <mxCell id="2IcstIMDx6z1O8IG73S6-58" value="Monitoreo de casos ingresados" style="rounded=0;whiteSpace=wrap;html=1;" parent="2IcstIMDx6z1O8IG73S6-1" vertex="1">
          <mxGeometry x="975" y="125" width="130" height="30" as="geometry" />
        </mxCell>
        <mxCell id="2IcstIMDx6z1O8IG73S6-59" value="Generar e imprimir el registro&lt;br&gt;Validar datos&lt;br&gt;Revisión Buro de credito&lt;br&gt;Revision historial&lt;br&gt;Revisar capacidad de pago&lt;br&gt;Levantamiento de informacion&lt;br&gt;Verificar solvencia (escritura de terreno)&lt;br&gt;Cumplimiento condiciones (ficha de producto)&lt;br&gt;" style="rounded=0;whiteSpace=wrap;html=1;" parent="2IcstIMDx6z1O8IG73S6-1" vertex="1">
          <mxGeometry x="1160" y="85" width="130" height="220" as="geometry" />
        </mxCell>
        <mxCell id="2IcstIMDx6z1O8IG73S6-60" value="" style="edgeStyle=orthogonalEdgeStyle;rounded=0;orthogonalLoop=1;jettySize=auto;html=1;" parent="2IcstIMDx6z1O8IG73S6-1" source="2IcstIMDx6z1O8IG73S6-61" target="padpRRckja4ZaJ5WYu_7-0" edge="1">
          <mxGeometry relative="1" as="geometry" />
        </mxCell>
        <mxCell id="2IcstIMDx6z1O8IG73S6-61" value="Emite una resolución y recomendación" style="rounded=0;whiteSpace=wrap;html=1;" parent="2IcstIMDx6z1O8IG73S6-1" vertex="1">
          <mxGeometry x="975" y="200" width="130" height="30" as="geometry" />
        </mxCell>
        <mxCell id="2IcstIMDx6z1O8IG73S6-71" value="" style="edgeStyle=orthogonalEdgeStyle;rounded=0;orthogonalLoop=1;jettySize=auto;html=1;" parent="2IcstIMDx6z1O8IG73S6-1" source="2IcstIMDx6z1O8IG73S6-72" target="2IcstIMDx6z1O8IG73S6-75" edge="1">
          <mxGeometry relative="1" as="geometry" />
        </mxCell>
        <mxCell id="2IcstIMDx6z1O8IG73S6-72" value="7" style="ellipse;whiteSpace=wrap;html=1;aspect=fixed;" parent="2IcstIMDx6z1O8IG73S6-1" vertex="1">
          <mxGeometry x="1025" y="467" width="40" height="40" as="geometry" />
        </mxCell>
        <mxCell id="2IcstIMDx6z1O8IG73S6-73" value="" style="edgeStyle=orthogonalEdgeStyle;rounded=0;orthogonalLoop=1;jettySize=auto;html=1;" parent="2IcstIMDx6z1O8IG73S6-1" source="2IcstIMDx6z1O8IG73S6-75" target="2IcstIMDx6z1O8IG73S6-76" edge="1">
          <mxGeometry relative="1" as="geometry" />
        </mxCell>
        <mxCell id="2IcstIMDx6z1O8IG73S6-74" value="" style="edgeStyle=orthogonalEdgeStyle;rounded=0;orthogonalLoop=1;jettySize=auto;html=1;" parent="2IcstIMDx6z1O8IG73S6-1" source="2IcstIMDx6z1O8IG73S6-75" target="2IcstIMDx6z1O8IG73S6-77" edge="1">
          <mxGeometry relative="1" as="geometry" />
        </mxCell>
        <mxCell id="2IcstIMDx6z1O8IG73S6-75" value="Verificación y aprobacion solicitud" style="rounded=0;whiteSpace=wrap;html=1;" parent="2IcstIMDx6z1O8IG73S6-1" vertex="1">
          <mxGeometry x="972.5" y="552" width="145" height="35" as="geometry" />
        </mxCell>
        <mxCell id="2IcstIMDx6z1O8IG73S6-76" value="02-226 Aprobación&lt;br&gt;02-227 Revisión&lt;br&gt;02-228 Confirmación&lt;br&gt;09-101 Ingreso garantía real" style="rounded=0;whiteSpace=wrap;html=1;" parent="2IcstIMDx6z1O8IG73S6-1" vertex="1">
          <mxGeometry x="1140" y="539.5" width="170" height="60" as="geometry" />
        </mxCell>
        <mxCell id="2IcstIMDx6z1O8IG73S6-77" value="8" style="ellipse;whiteSpace=wrap;html=1;aspect=fixed;" parent="2IcstIMDx6z1O8IG73S6-1" vertex="1">
          <mxGeometry x="1025" y="632" width="40" height="40" as="geometry" />
        </mxCell>
        <mxCell id="2IcstIMDx6z1O8IG73S6-80" value="5" style="ellipse;whiteSpace=wrap;html=1;aspect=fixed;" parent="2IcstIMDx6z1O8IG73S6-1" vertex="1">
          <mxGeometry x="1020" y="390" width="40" height="40" as="geometry" />
        </mxCell>
        <mxCell id="2IcstIMDx6z1O8IG73S6-101" value="30 min" style="text;html=1;strokeColor=none;fillColor=none;align=center;verticalAlign=middle;whiteSpace=wrap;rounded=0;" parent="2IcstIMDx6z1O8IG73S6-1" vertex="1">
          <mxGeometry x="50" y="390" width="40" height="20" as="geometry" />
        </mxCell>
        <mxCell id="padpRRckja4ZaJ5WYu_7-3" value="" style="edgeStyle=orthogonalEdgeStyle;rounded=0;orthogonalLoop=1;jettySize=auto;html=1;" parent="2IcstIMDx6z1O8IG73S6-1" source="padpRRckja4ZaJ5WYu_7-0" target="2IcstIMDx6z1O8IG73S6-80" edge="1">
          <mxGeometry relative="1" as="geometry" />
        </mxCell>
        <mxCell id="padpRRckja4ZaJ5WYu_7-7" value="" style="edgeStyle=orthogonalEdgeStyle;rounded=0;orthogonalLoop=1;jettySize=auto;html=1;" parent="2IcstIMDx6z1O8IG73S6-1" source="padpRRckja4ZaJ5WYu_7-0" target="padpRRckja4ZaJ5WYu_7-6" edge="1">
          <mxGeometry relative="1" as="geometry" />
        </mxCell>
        <mxCell id="padpRRckja4ZaJ5WYu_7-0" value="Control" style="rhombus;whiteSpace=wrap;html=1;" parent="2IcstIMDx6z1O8IG73S6-1" vertex="1">
          <mxGeometry x="1000" y="270" width="80" height="80" as="geometry" />
        </mxCell>
        <mxCell id="padpRRckja4ZaJ5WYu_7-4" value="SI" style="text;html=1;strokeColor=none;fillColor=none;align=center;verticalAlign=middle;whiteSpace=wrap;rounded=0;" parent="2IcstIMDx6z1O8IG73S6-1" vertex="1">
          <mxGeometry x="1040" y="350" width="40" height="20" as="geometry" />
        </mxCell>
        <mxCell id="padpRRckja4ZaJ5WYu_7-5" value="NO" style="text;html=1;strokeColor=none;fillColor=none;align=center;verticalAlign=middle;whiteSpace=wrap;rounded=0;" parent="2IcstIMDx6z1O8IG73S6-1" vertex="1">
          <mxGeometry x="960" y="280" width="40" height="20" as="geometry" />
        </mxCell>
        <mxCell id="padpRRckja4ZaJ5WYu_7-6" value="3" style="ellipse;whiteSpace=wrap;html=1;aspect=fixed;" parent="2IcstIMDx6z1O8IG73S6-1" vertex="1">
          <mxGeometry x="900" y="290" width="40" height="40" as="geometry" />
        </mxCell>
        <mxCell id="z_J2zLSmfvoNL0WnO1Q8-1" value="" style="edgeStyle=orthogonalEdgeStyle;rounded=0;orthogonalLoop=1;jettySize=auto;html=1;entryX=0.5;entryY=0;entryDx=0;entryDy=0;" parent="2IcstIMDx6z1O8IG73S6-1" source="z_J2zLSmfvoNL0WnO1Q8-3" target="2IcstIMDx6z1O8IG73S6-45" edge="1">
          <mxGeometry relative="1" as="geometry">
            <mxPoint x="140" y="1050" as="targetPoint" />
          </mxGeometry>
        </mxCell>
        <mxCell id="z_J2zLSmfvoNL0WnO1Q8-2" value="" style="edgeStyle=orthogonalEdgeStyle;rounded=0;orthogonalLoop=1;jettySize=auto;html=1;" parent="2IcstIMDx6z1O8IG73S6-1" source="z_J2zLSmfvoNL0WnO1Q8-3" target="z_J2zLSmfvoNL0WnO1Q8-6" edge="1">
          <mxGeometry relative="1" as="geometry" />
        </mxCell>
        <mxCell id="z_J2zLSmfvoNL0WnO1Q8-3" value="Validación" style="rhombus;whiteSpace=wrap;html=1;" parent="2IcstIMDx6z1O8IG73S6-1" vertex="1">
          <mxGeometry x="100" y="900" width="80" height="80" as="geometry" />
        </mxCell>
        <mxCell id="z_J2zLSmfvoNL0WnO1Q8-4" value="SI" style="text;html=1;strokeColor=none;fillColor=none;align=center;verticalAlign=middle;whiteSpace=wrap;rounded=0;" parent="2IcstIMDx6z1O8IG73S6-1" vertex="1">
          <mxGeometry x="140" y="980" width="40" height="20" as="geometry" />
        </mxCell>
        <mxCell id="z_J2zLSmfvoNL0WnO1Q8-5" value="NO" style="text;html=1;strokeColor=none;fillColor=none;align=center;verticalAlign=middle;whiteSpace=wrap;rounded=0;" parent="2IcstIMDx6z1O8IG73S6-1" vertex="1">
          <mxGeometry x="60" y="910" width="40" height="20" as="geometry" />
        </mxCell>
        <mxCell id="z_J2zLSmfvoNL0WnO1Q8-6" value="FIN" style="ellipse;whiteSpace=wrap;html=1;aspect=fixed;" parent="2IcstIMDx6z1O8IG73S6-1" vertex="1">
          <mxGeometry y="920" width="40" height="40" as="geometry" />
        </mxCell>
        <mxCell id="adTKP5SYQOPnWgXyNHyX-0" value="ANALISTA DE CRÉDITO" style="swimlane;" parent="2IcstIMDx6z1O8IG73S6-1" vertex="1">
          <mxGeometry x="-10" y="10" width="450" height="1860" as="geometry" />
        </mxCell>
        <mxCell id="2IcstIMDx6z1O8IG73S6-82" value="8" style="ellipse;whiteSpace=wrap;html=1;aspect=fixed;" parent="adTKP5SYQOPnWgXyNHyX-0" vertex="1">
          <mxGeometry x="115" y="1520" width="40" height="40" as="geometry" />
        </mxCell>
        <mxCell id="2IcstIMDx6z1O8IG73S6-85" value="Desembolso" style="rounded=0;whiteSpace=wrap;html=1;" parent="adTKP5SYQOPnWgXyNHyX-0" vertex="1">
          <mxGeometry x="70" y="1590" width="130" height="30" as="geometry" />
        </mxCell>
        <mxCell id="2IcstIMDx6z1O8IG73S6-81" value="" style="edgeStyle=orthogonalEdgeStyle;rounded=0;orthogonalLoop=1;jettySize=auto;html=1;" parent="adTKP5SYQOPnWgXyNHyX-0" source="2IcstIMDx6z1O8IG73S6-82" target="2IcstIMDx6z1O8IG73S6-85" edge="1">
          <mxGeometry relative="1" as="geometry" />
        </mxCell>
        <mxCell id="2IcstIMDx6z1O8IG73S6-86" value="- Generar Pagaré&lt;br&gt;- Orden de pago&lt;br&gt;- Tabla de pagos&lt;br&gt;- Encuesta de satisfacción" style="rounded=0;whiteSpace=wrap;html=1;" parent="adTKP5SYQOPnWgXyNHyX-0" vertex="1">
          <mxGeometry x="265" y="1555" width="130" height="100" as="geometry" />
        </mxCell>
        <mxCell id="2IcstIMDx6z1O8IG73S6-83" value="" style="edgeStyle=orthogonalEdgeStyle;rounded=0;orthogonalLoop=1;jettySize=auto;html=1;" parent="adTKP5SYQOPnWgXyNHyX-0" source="2IcstIMDx6z1O8IG73S6-85" target="2IcstIMDx6z1O8IG73S6-86" edge="1">
          <mxGeometry relative="1" as="geometry" />
        </mxCell>
        <mxCell id="2IcstIMDx6z1O8IG73S6-89" value="Cierre de caso SIACC" style="rounded=0;whiteSpace=wrap;html=1;" parent="adTKP5SYQOPnWgXyNHyX-0" vertex="1">
          <mxGeometry x="70" y="1685" width="130" height="30" as="geometry" />
        </mxCell>
        <mxCell id="2IcstIMDx6z1O8IG73S6-84" value="" style="edgeStyle=orthogonalEdgeStyle;rounded=0;orthogonalLoop=1;jettySize=auto;html=1;" parent="adTKP5SYQOPnWgXyNHyX-0" source="2IcstIMDx6z1O8IG73S6-85" target="2IcstIMDx6z1O8IG73S6-89" edge="1">
          <mxGeometry relative="1" as="geometry" />
        </mxCell>
        <mxCell id="2IcstIMDx6z1O8IG73S6-90" value="Escanear documentos de desembolsaso ALLFRESCO" style="rounded=0;whiteSpace=wrap;html=1;" parent="adTKP5SYQOPnWgXyNHyX-0" vertex="1">
          <mxGeometry x="267" y="1670" width="126" height="60" as="geometry" />
        </mxCell>
        <mxCell id="2IcstIMDx6z1O8IG73S6-87" value="" style="edgeStyle=orthogonalEdgeStyle;rounded=0;orthogonalLoop=1;jettySize=auto;html=1;" parent="adTKP5SYQOPnWgXyNHyX-0" source="2IcstIMDx6z1O8IG73S6-89" target="2IcstIMDx6z1O8IG73S6-90" edge="1">
          <mxGeometry relative="1" as="geometry" />
        </mxCell>
        <mxCell id="2IcstIMDx6z1O8IG73S6-91" value="9" style="ellipse;whiteSpace=wrap;html=1;aspect=fixed;" parent="adTKP5SYQOPnWgXyNHyX-0" vertex="1">
          <mxGeometry x="115" y="1740" width="40" height="40" as="geometry" />
        </mxCell>
        <mxCell id="2IcstIMDx6z1O8IG73S6-88" value="" style="edgeStyle=orthogonalEdgeStyle;rounded=0;orthogonalLoop=1;jettySize=auto;html=1;entryX=0.5;entryY=0;entryDx=0;entryDy=0;" parent="adTKP5SYQOPnWgXyNHyX-0" source="2IcstIMDx6z1O8IG73S6-89" target="2IcstIMDx6z1O8IG73S6-91" edge="1">
          <mxGeometry relative="1" as="geometry">
            <mxPoint x="135" y="1775" as="targetPoint" />
          </mxGeometry>
        </mxCell>
        <mxCell id="2IcstIMDx6z1O8IG73S6-47" value="1" style="ellipse;whiteSpace=wrap;html=1;aspect=fixed;" parent="adTKP5SYQOPnWgXyNHyX-0" vertex="1">
          <mxGeometry x="115" y="80" width="40" height="40" as="geometry" />
        </mxCell>
        <mxCell id="QS1uCL1BBU3N2EwGceVu-4" style="edgeStyle=orthogonalEdgeStyle;rounded=0;orthogonalLoop=1;jettySize=auto;html=1;entryX=0.5;entryY=0;entryDx=0;entryDy=0;" parent="adTKP5SYQOPnWgXyNHyX-0" target="2IcstIMDx6z1O8IG73S6-47" edge="1">
          <mxGeometry relative="1" as="geometry">
            <mxPoint x="135" y="55" as="sourcePoint" />
          </mxGeometry>
        </mxCell>
        <mxCell id="2IcstIMDx6z1O8IG73S6-4" value="INICIO" style="rounded=1;whiteSpace=wrap;html=1;" parent="adTKP5SYQOPnWgXyNHyX-0" vertex="1">
          <mxGeometry x="105" y="25" width="60" height="30" as="geometry" />
        </mxCell>
        <mxCell id="2IcstIMDx6z1O8IG73S6-100" value="30 min" style="text;html=1;strokeColor=none;fillColor=none;align=center;verticalAlign=middle;whiteSpace=wrap;rounded=0;" parent="adTKP5SYQOPnWgXyNHyX-0" vertex="1">
          <mxGeometry x="60" y="325" width="40" height="20" as="geometry" />
        </mxCell>
        <mxCell id="2IcstIMDx6z1O8IG73S6-107" value="1h30" style="text;html=1;strokeColor=none;fillColor=none;align=center;verticalAlign=middle;whiteSpace=wrap;rounded=0;" parent="adTKP5SYQOPnWgXyNHyX-0" vertex="1">
          <mxGeometry x="80" y="975" width="40" height="20" as="geometry" />
        </mxCell>
        <mxCell id="2IcstIMDx6z1O8IG73S6-106" value="30min" style="text;html=1;strokeColor=none;fillColor=none;align=center;verticalAlign=middle;whiteSpace=wrap;rounded=0;" parent="adTKP5SYQOPnWgXyNHyX-0" vertex="1">
          <mxGeometry x="80" y="812.5" width="40" height="20" as="geometry" />
        </mxCell>
        <mxCell id="QS1uCL1BBU3N2EwGceVu-6" value="10 min" style="text;html=1;strokeColor=none;fillColor=none;align=center;verticalAlign=middle;whiteSpace=wrap;rounded=0;" parent="adTKP5SYQOPnWgXyNHyX-0" vertex="1">
          <mxGeometry x="70" y="1665" width="40" height="20" as="geometry" />
        </mxCell>
        <mxCell id="2IcstIMDx6z1O8IG73S6-25" value="SI" style="text;html=1;strokeColor=none;fillColor=none;align=center;verticalAlign=middle;whiteSpace=wrap;rounded=0;" parent="adTKP5SYQOPnWgXyNHyX-0" vertex="1">
          <mxGeometry x="140" y="540" width="40" height="20" as="geometry" />
        </mxCell>
        <mxCell id="2IcstIMDx6z1O8IG73S6-17" value="Cumple condiciones" style="rhombus;whiteSpace=wrap;html=1;" parent="adTKP5SYQOPnWgXyNHyX-0" vertex="1">
          <mxGeometry x="95" y="460" width="80" height="80" as="geometry" />
        </mxCell>
        <mxCell id="2IcstIMDx6z1O8IG73S6-16" value="" style="edgeStyle=orthogonalEdgeStyle;rounded=0;orthogonalLoop=1;jettySize=auto;html=1;entryX=0;entryY=0.5;entryDx=0;entryDy=0;exitX=0;exitY=0.5;exitDx=0;exitDy=0;" parent="adTKP5SYQOPnWgXyNHyX-0" source="2IcstIMDx6z1O8IG73S6-17" target="2IcstIMDx6z1O8IG73S6-4" edge="1">
          <mxGeometry relative="1" as="geometry">
            <Array as="points">
              <mxPoint x="40" y="500" />
              <mxPoint x="40" y="40" />
            </Array>
          </mxGeometry>
        </mxCell>
        <mxCell id="2IcstIMDx6z1O8IG73S6-20" value="Entrega de carpeta" style="rounded=0;whiteSpace=wrap;html=1;" parent="adTKP5SYQOPnWgXyNHyX-0" vertex="1">
          <mxGeometry x="60" y="560" width="150" height="40" as="geometry" />
        </mxCell>
        <mxCell id="2IcstIMDx6z1O8IG73S6-15" value="" style="edgeStyle=orthogonalEdgeStyle;rounded=0;orthogonalLoop=1;jettySize=auto;html=1;" parent="adTKP5SYQOPnWgXyNHyX-0" source="2IcstIMDx6z1O8IG73S6-17" target="2IcstIMDx6z1O8IG73S6-20" edge="1">
          <mxGeometry relative="1" as="geometry" />
        </mxCell>
        <mxCell id="2IcstIMDx6z1O8IG73S6-48" value="Envío digital y&lt;br&gt;Entrega Fisica&amp;nbsp; de expedientes." style="rounded=0;whiteSpace=wrap;html=1;" parent="adTKP5SYQOPnWgXyNHyX-0" vertex="1">
          <mxGeometry x="240" y="555" width="150" height="50" as="geometry" />
        </mxCell>
        <mxCell id="2IcstIMDx6z1O8IG73S6-18" value="" style="edgeStyle=orthogonalEdgeStyle;rounded=0;orthogonalLoop=1;jettySize=auto;html=1;" parent="adTKP5SYQOPnWgXyNHyX-0" source="2IcstIMDx6z1O8IG73S6-20" target="2IcstIMDx6z1O8IG73S6-48" edge="1">
          <mxGeometry relative="1" as="geometry" />
        </mxCell>
        <mxCell id="2IcstIMDx6z1O8IG73S6-78" value="2" style="ellipse;whiteSpace=wrap;html=1;aspect=fixed;" parent="adTKP5SYQOPnWgXyNHyX-0" vertex="1">
          <mxGeometry x="115" y="630" width="40" height="40" as="geometry" />
        </mxCell>
        <mxCell id="2IcstIMDx6z1O8IG73S6-19" value="" style="edgeStyle=orthogonalEdgeStyle;rounded=0;orthogonalLoop=1;jettySize=auto;html=1;" parent="adTKP5SYQOPnWgXyNHyX-0" source="2IcstIMDx6z1O8IG73S6-20" target="2IcstIMDx6z1O8IG73S6-78" edge="1">
          <mxGeometry relative="1" as="geometry" />
        </mxCell>
        <mxCell id="2IcstIMDx6z1O8IG73S6-24" value="NO" style="text;html=1;strokeColor=none;fillColor=none;align=center;verticalAlign=middle;whiteSpace=wrap;rounded=0;" parent="adTKP5SYQOPnWgXyNHyX-0" vertex="1">
          <mxGeometry x="50" y="480" width="40" height="20" as="geometry" />
        </mxCell>
        <mxCell id="2IcstIMDx6z1O8IG73S6-79" value="4" style="ellipse;whiteSpace=wrap;html=1;aspect=fixed;" parent="adTKP5SYQOPnWgXyNHyX-0" vertex="1">
          <mxGeometry x="130" y="1119" width="40" height="40" as="geometry" />
        </mxCell>
        <mxCell id="mB0Rq_0rfMvX8lFDZ9c--3" value="6" style="ellipse;whiteSpace=wrap;html=1;aspect=fixed;" parent="adTKP5SYQOPnWgXyNHyX-0" vertex="1">
          <mxGeometry x="115" y="1200" width="40" height="40" as="geometry" />
        </mxCell>
        <mxCell id="mB0Rq_0rfMvX8lFDZ9c--4" value="Recepta correo electrónico" style="rounded=0;whiteSpace=wrap;html=1;" parent="adTKP5SYQOPnWgXyNHyX-0" vertex="1">
          <mxGeometry x="70" y="1270" width="130" height="30" as="geometry" />
        </mxCell>
        <mxCell id="mB0Rq_0rfMvX8lFDZ9c--5" value="" style="edgeStyle=orthogonalEdgeStyle;rounded=0;orthogonalLoop=1;jettySize=auto;html=1;" parent="adTKP5SYQOPnWgXyNHyX-0" source="mB0Rq_0rfMvX8lFDZ9c--3" target="mB0Rq_0rfMvX8lFDZ9c--4" edge="1">
          <mxGeometry relative="1" as="geometry" />
        </mxCell>
        <mxCell id="mB0Rq_0rfMvX8lFDZ9c--6" value="Monitorear constantemente SIACC y correo electrónico." style="rounded=0;whiteSpace=wrap;html=1;" parent="adTKP5SYQOPnWgXyNHyX-0" vertex="1">
          <mxGeometry x="265" y="1235" width="130" height="100" as="geometry" />
        </mxCell>
        <mxCell id="mB0Rq_0rfMvX8lFDZ9c--7" value="" style="edgeStyle=orthogonalEdgeStyle;rounded=0;orthogonalLoop=1;jettySize=auto;html=1;" parent="adTKP5SYQOPnWgXyNHyX-0" source="mB0Rq_0rfMvX8lFDZ9c--4" target="mB0Rq_0rfMvX8lFDZ9c--6" edge="1">
          <mxGeometry relative="1" as="geometry" />
        </mxCell>
        <mxCell id="mB0Rq_0rfMvX8lFDZ9c--8" value="Creación de solicitud de crédito con presencia de socio y garante." style="rounded=0;whiteSpace=wrap;html=1;" parent="adTKP5SYQOPnWgXyNHyX-0" vertex="1">
          <mxGeometry x="70" y="1330" width="130" height="65" as="geometry" />
        </mxCell>
        <mxCell id="mB0Rq_0rfMvX8lFDZ9c--9" value="" style="edgeStyle=orthogonalEdgeStyle;rounded=0;orthogonalLoop=1;jettySize=auto;html=1;" parent="adTKP5SYQOPnWgXyNHyX-0" source="mB0Rq_0rfMvX8lFDZ9c--4" target="mB0Rq_0rfMvX8lFDZ9c--8" edge="1">
          <mxGeometry relative="1" as="geometry" />
        </mxCell>
        <mxCell id="mB0Rq_0rfMvX8lFDZ9c--10" value="Transacción 02-229" style="rounded=0;whiteSpace=wrap;html=1;" parent="adTKP5SYQOPnWgXyNHyX-0" vertex="1">
          <mxGeometry x="267" y="1350" width="126" height="60" as="geometry" />
        </mxCell>
        <mxCell id="mB0Rq_0rfMvX8lFDZ9c--11" value="" style="edgeStyle=orthogonalEdgeStyle;rounded=0;orthogonalLoop=1;jettySize=auto;html=1;" parent="adTKP5SYQOPnWgXyNHyX-0" source="mB0Rq_0rfMvX8lFDZ9c--8" target="mB0Rq_0rfMvX8lFDZ9c--10" edge="1">
          <mxGeometry relative="1" as="geometry" />
        </mxCell>
        <mxCell id="mB0Rq_0rfMvX8lFDZ9c--12" value="7" style="ellipse;whiteSpace=wrap;html=1;aspect=fixed;" parent="adTKP5SYQOPnWgXyNHyX-0" vertex="1">
          <mxGeometry x="115" y="1420" width="40" height="40" as="geometry" />
        </mxCell>
        <mxCell id="mB0Rq_0rfMvX8lFDZ9c--13" value="" style="edgeStyle=orthogonalEdgeStyle;rounded=0;orthogonalLoop=1;jettySize=auto;html=1;entryX=0.5;entryY=0;entryDx=0;entryDy=0;" parent="adTKP5SYQOPnWgXyNHyX-0" source="mB0Rq_0rfMvX8lFDZ9c--8" target="mB0Rq_0rfMvX8lFDZ9c--12" edge="1">
          <mxGeometry relative="1" as="geometry">
            <mxPoint x="145" y="1445" as="targetPoint" />
          </mxGeometry>
        </mxCell>
        <mxCell id="JcBboKBmUlpdLDFP75ce-0" value="ASESOR DE CRÉDITO" style="swimlane;" parent="2IcstIMDx6z1O8IG73S6-1" vertex="1">
          <mxGeometry x="440" y="10" width="430" height="1860" as="geometry" />
        </mxCell>
        <mxCell id="2IcstIMDx6z1O8IG73S6-26" value="Visita Titular y Garante&lt;br&gt;Confirmación de direccion&lt;br&gt;Cotejas datos&lt;br&gt;Llenar el registro 7&lt;br&gt;(Referidos diario)" style="rounded=0;whiteSpace=wrap;html=1;" parent="JcBboKBmUlpdLDFP75ce-0" vertex="1">
          <mxGeometry x="270" y="125" width="150" height="80" as="geometry" />
        </mxCell>
        <mxCell id="2IcstIMDx6z1O8IG73S6-29" value="2" style="ellipse;whiteSpace=wrap;html=1;aspect=fixed;" parent="JcBboKBmUlpdLDFP75ce-0" vertex="1">
          <mxGeometry x="145" y="50" width="40" height="40" as="geometry" />
        </mxCell>
        <mxCell id="2IcstIMDx6z1O8IG73S6-32" value="Recomendable?" style="rhombus;whiteSpace=wrap;html=1;" parent="JcBboKBmUlpdLDFP75ce-0" vertex="1">
          <mxGeometry x="102.5" y="245" width="120" height="100" as="geometry" />
        </mxCell>
        <mxCell id="2IcstIMDx6z1O8IG73S6-34" value="Comentarios y Observaciones en el registro 7" style="rounded=0;whiteSpace=wrap;html=1;" parent="JcBboKBmUlpdLDFP75ce-0" vertex="1">
          <mxGeometry x="87.5" y="390" width="145" height="50" as="geometry" />
        </mxCell>
        <mxCell id="2IcstIMDx6z1O8IG73S6-30" value="" style="edgeStyle=orthogonalEdgeStyle;rounded=0;orthogonalLoop=1;jettySize=auto;html=1;" parent="JcBboKBmUlpdLDFP75ce-0" source="2IcstIMDx6z1O8IG73S6-32" target="2IcstIMDx6z1O8IG73S6-34" edge="1">
          <mxGeometry relative="1" as="geometry" />
        </mxCell>
        <mxCell id="2IcstIMDx6z1O8IG73S6-35" value="SI" style="text;html=1;strokeColor=none;fillColor=none;align=center;verticalAlign=middle;whiteSpace=wrap;rounded=0;" parent="JcBboKBmUlpdLDFP75ce-0" vertex="1">
          <mxGeometry x="172.5" y="345" width="40" height="20" as="geometry" />
        </mxCell>
        <mxCell id="2IcstIMDx6z1O8IG73S6-103" value="" style="edgeStyle=orthogonalEdgeStyle;rounded=0;orthogonalLoop=1;jettySize=auto;html=1;" parent="JcBboKBmUlpdLDFP75ce-0" source="2IcstIMDx6z1O8IG73S6-105" target="2IcstIMDx6z1O8IG73S6-26" edge="1">
          <mxGeometry relative="1" as="geometry" />
        </mxCell>
        <mxCell id="2IcstIMDx6z1O8IG73S6-104" value="" style="edgeStyle=orthogonalEdgeStyle;rounded=0;orthogonalLoop=1;jettySize=auto;html=1;" parent="JcBboKBmUlpdLDFP75ce-0" source="2IcstIMDx6z1O8IG73S6-105" target="2IcstIMDx6z1O8IG73S6-32" edge="1">
          <mxGeometry relative="1" as="geometry" />
        </mxCell>
        <mxCell id="2IcstIMDx6z1O8IG73S6-105" value="Proceso de inspección" style="rounded=0;whiteSpace=wrap;html=1;" parent="JcBboKBmUlpdLDFP75ce-0" vertex="1">
          <mxGeometry x="92.5" y="147.5" width="145" height="35" as="geometry" />
        </mxCell>
        <mxCell id="2IcstIMDx6z1O8IG73S6-28" style="edgeStyle=orthogonalEdgeStyle;rounded=0;orthogonalLoop=1;jettySize=auto;html=1;entryX=0.5;entryY=0;entryDx=0;entryDy=0;" parent="JcBboKBmUlpdLDFP75ce-0" source="2IcstIMDx6z1O8IG73S6-29" target="2IcstIMDx6z1O8IG73S6-105" edge="1">
          <mxGeometry relative="1" as="geometry" />
        </mxCell>
        <mxCell id="2IcstIMDx6z1O8IG73S6-110" value="NO" style="text;html=1;strokeColor=none;fillColor=none;align=center;verticalAlign=middle;whiteSpace=wrap;rounded=0;" parent="JcBboKBmUlpdLDFP75ce-0" vertex="1">
          <mxGeometry x="62.5" y="270" width="40" height="20" as="geometry" />
        </mxCell>
        <mxCell id="2IcstIMDx6z1O8IG73S6-112" value="3" style="ellipse;whiteSpace=wrap;html=1;aspect=fixed;" parent="JcBboKBmUlpdLDFP75ce-0" vertex="1">
          <mxGeometry x="140" y="470" width="40" height="40" as="geometry" />
        </mxCell>
        <mxCell id="2IcstIMDx6z1O8IG73S6-33" value="" style="edgeStyle=orthogonalEdgeStyle;rounded=0;orthogonalLoop=1;jettySize=auto;html=1;" parent="JcBboKBmUlpdLDFP75ce-0" source="2IcstIMDx6z1O8IG73S6-34" target="2IcstIMDx6z1O8IG73S6-112" edge="1">
          <mxGeometry relative="1" as="geometry" />
        </mxCell>
        <mxCell id="2IcstIMDx6z1O8IG73S6-102" value="2horas" style="text;html=1;strokeColor=none;fillColor=none;align=center;verticalAlign=middle;whiteSpace=wrap;rounded=0;" parent="JcBboKBmUlpdLDFP75ce-0" vertex="1">
          <mxGeometry x="92.5" y="120" width="40" height="20" as="geometry" />
        </mxCell>
        <mxCell id="2IcstIMDx6z1O8IG73S6-111" value="1" style="ellipse;whiteSpace=wrap;html=1;aspect=fixed;" parent="JcBboKBmUlpdLDFP75ce-0" vertex="1">
          <mxGeometry x="10" y="225" width="40" height="40" as="geometry" />
        </mxCell>
        <mxCell id="2IcstIMDx6z1O8IG73S6-31" value="" style="edgeStyle=orthogonalEdgeStyle;rounded=0;orthogonalLoop=1;jettySize=auto;html=1;entryX=0.5;entryY=1;entryDx=0;entryDy=0;" parent="JcBboKBmUlpdLDFP75ce-0" source="2IcstIMDx6z1O8IG73S6-32" target="2IcstIMDx6z1O8IG73S6-111" edge="1">
          <mxGeometry relative="1" as="geometry">
            <mxPoint x="20" y="270" as="targetPoint" />
          </mxGeometry>
        </mxCell>
        <mxCell id="vtzhB7w6qhlHyrIH50OX-0" value="FABRICA DE CRÉDITO" style="swimlane;" parent="2IcstIMDx6z1O8IG73S6-1" vertex="1">
          <mxGeometry x="870" y="10" width="450" height="1860" as="geometry" />
        </mxCell>
        <mxCell id="2IcstIMDx6z1O8IG73S6-108" value="20min" style="text;html=1;strokeColor=none;fillColor=none;align=center;verticalAlign=middle;whiteSpace=wrap;rounded=0;" parent="vtzhB7w6qhlHyrIH50OX-0" vertex="1">
          <mxGeometry x="105" y="95" width="40" height="20" as="geometry" />
        </mxCell>
        <mxCell id="2IcstIMDx6z1O8IG73S6-109" value="10min" style="text;html=1;strokeColor=none;fillColor=none;align=center;verticalAlign=middle;whiteSpace=wrap;rounded=0;" parent="vtzhB7w6qhlHyrIH50OX-0" vertex="1">
          <mxGeometry x="102.5" y="170" width="40" height="20" as="geometry" />
        </mxCell>
        <mxCell id="QS1uCL1BBU3N2EwGceVu-7" value="5 min" style="text;html=1;strokeColor=none;fillColor=none;align=center;verticalAlign=middle;whiteSpace=wrap;rounded=0;" parent="vtzhB7w6qhlHyrIH50OX-0" vertex="1">
          <mxGeometry x="102.5" y="525" width="40" height="20" as="geometry" />
        </mxCell>
        <mxCell id="V8_j0M1q9hcCclcCkMyv-0" value="COMITÉ DE CRÉDITO" style="swimlane;" parent="2IcstIMDx6z1O8IG73S6-1" vertex="1">
          <mxGeometry x="1320" y="10" width="260" height="1860" as="geometry" />
        </mxCell>
        <mxCell id="2IcstIMDx6z1O8IG73S6-63" value="5" style="ellipse;whiteSpace=wrap;html=1;aspect=fixed;" parent="V8_j0M1q9hcCclcCkMyv-0" vertex="1">
          <mxGeometry x="120.5" y="50" width="40" height="40" as="geometry" />
        </mxCell>
        <mxCell id="2IcstIMDx6z1O8IG73S6-62" value="" style="edgeStyle=orthogonalEdgeStyle;rounded=0;orthogonalLoop=1;jettySize=auto;html=1;" parent="V8_j0M1q9hcCclcCkMyv-0" source="2IcstIMDx6z1O8IG73S6-63" target="QS1uCL1BBU3N2EwGceVu-18" edge="1">
          <mxGeometry relative="1" as="geometry">
            <mxPoint x="142.5" y="132.5" as="targetPoint" />
          </mxGeometry>
        </mxCell>
        <mxCell id="2IcstIMDx6z1O8IG73S6-70" value="6" style="ellipse;whiteSpace=wrap;html=1;aspect=fixed;" parent="V8_j0M1q9hcCclcCkMyv-0" vertex="1">
          <mxGeometry x="120.5" y="400" width="40" height="40" as="geometry" />
        </mxCell>
        <mxCell id="QS1uCL1BBU3N2EwGceVu-16" value="" style="edgeStyle=orthogonalEdgeStyle;rounded=0;orthogonalLoop=1;jettySize=auto;html=1;entryX=0.5;entryY=0;entryDx=0;entryDy=0;" parent="V8_j0M1q9hcCclcCkMyv-0" source="QS1uCL1BBU3N2EwGceVu-18" target="QS1uCL1BBU3N2EwGceVu-21" edge="1">
          <mxGeometry relative="1" as="geometry">
            <mxPoint x="140" y="245" as="targetPoint" />
          </mxGeometry>
        </mxCell>
        <mxCell id="QS1uCL1BBU3N2EwGceVu-17" value="" style="edgeStyle=orthogonalEdgeStyle;rounded=0;orthogonalLoop=1;jettySize=auto;html=1;entryX=1;entryY=0.5;entryDx=0;entryDy=0;" parent="V8_j0M1q9hcCclcCkMyv-0" source="QS1uCL1BBU3N2EwGceVu-18" target="QS1uCL1BBU3N2EwGceVu-23" edge="1">
          <mxGeometry relative="1" as="geometry">
            <mxPoint x="40" y="165" as="targetPoint" />
          </mxGeometry>
        </mxCell>
        <mxCell id="QS1uCL1BBU3N2EwGceVu-18" value="Resoluciones&lt;br&gt;comité" style="rhombus;whiteSpace=wrap;html=1;" parent="V8_j0M1q9hcCclcCkMyv-0" vertex="1">
          <mxGeometry x="90.5" y="120" width="100" height="90" as="geometry" />
        </mxCell>
        <mxCell id="QS1uCL1BBU3N2EwGceVu-19" value="SI" style="text;html=1;strokeColor=none;fillColor=none;align=center;verticalAlign=middle;whiteSpace=wrap;rounded=0;" parent="V8_j0M1q9hcCclcCkMyv-0" vertex="1">
          <mxGeometry x="140" y="205" width="40" height="20" as="geometry" />
        </mxCell>
        <mxCell id="QS1uCL1BBU3N2EwGceVu-20" value="NO" style="text;html=1;strokeColor=none;fillColor=none;align=center;verticalAlign=middle;whiteSpace=wrap;rounded=0;" parent="V8_j0M1q9hcCclcCkMyv-0" vertex="1">
          <mxGeometry x="60" y="135" width="40" height="20" as="geometry" />
        </mxCell>
        <mxCell id="mB0Rq_0rfMvX8lFDZ9c--2" value="" style="edgeStyle=orthogonalEdgeStyle;rounded=0;orthogonalLoop=1;jettySize=auto;html=1;" parent="V8_j0M1q9hcCclcCkMyv-0" source="QS1uCL1BBU3N2EwGceVu-21" target="mB0Rq_0rfMvX8lFDZ9c--0" edge="1">
          <mxGeometry relative="1" as="geometry" />
        </mxCell>
        <mxCell id="QS1uCL1BBU3N2EwGceVu-21" value="Regularizar y formalizar&lt;br&gt;Firma Acta" style="rounded=0;whiteSpace=wrap;html=1;" parent="V8_j0M1q9hcCclcCkMyv-0" vertex="1">
          <mxGeometry x="68" y="265" width="145" height="35" as="geometry" />
        </mxCell>
        <mxCell id="QS1uCL1BBU3N2EwGceVu-23" value="4" style="ellipse;whiteSpace=wrap;html=1;aspect=fixed;" parent="V8_j0M1q9hcCclcCkMyv-0" vertex="1">
          <mxGeometry x="10" y="145" width="40" height="40" as="geometry" />
        </mxCell>
        <mxCell id="mB0Rq_0rfMvX8lFDZ9c--1" value="" style="edgeStyle=orthogonalEdgeStyle;rounded=0;orthogonalLoop=1;jettySize=auto;html=1;" parent="V8_j0M1q9hcCclcCkMyv-0" source="mB0Rq_0rfMvX8lFDZ9c--0" target="2IcstIMDx6z1O8IG73S6-70" edge="1">
          <mxGeometry relative="1" as="geometry" />
        </mxCell>
        <mxCell id="mB0Rq_0rfMvX8lFDZ9c--0" value="Generación de correo electrónico con resolución" style="rounded=0;whiteSpace=wrap;html=1;" parent="V8_j0M1q9hcCclcCkMyv-0" vertex="1">
          <mxGeometry x="68" y="330" width="145" height="35" as="geometry" />
        </mxCell>
        <mxCell id="QS1uCL1BBU3N2EwGceVu-0" value="ARCHIVO" style="swimlane;" parent="2IcstIMDx6z1O8IG73S6-1" vertex="1">
          <mxGeometry x="1580" y="10" width="360" height="1860" as="geometry" />
        </mxCell>
        <mxCell id="2IcstIMDx6z1O8IG73S6-94" value="9" style="ellipse;whiteSpace=wrap;html=1;aspect=fixed;" parent="QS1uCL1BBU3N2EwGceVu-0" vertex="1">
          <mxGeometry x="82.5" y="50" width="40" height="40" as="geometry" />
        </mxCell>
        <mxCell id="2IcstIMDx6z1O8IG73S6-97" value="Envió a custodio (Jefe de Oficina)" style="rounded=0;whiteSpace=wrap;html=1;" parent="QS1uCL1BBU3N2EwGceVu-0" vertex="1">
          <mxGeometry x="30" y="140" width="145" height="35" as="geometry" />
        </mxCell>
        <mxCell id="2IcstIMDx6z1O8IG73S6-93" value="" style="edgeStyle=orthogonalEdgeStyle;rounded=0;orthogonalLoop=1;jettySize=auto;html=1;" parent="QS1uCL1BBU3N2EwGceVu-0" source="2IcstIMDx6z1O8IG73S6-94" target="2IcstIMDx6z1O8IG73S6-97" edge="1">
          <mxGeometry relative="1" as="geometry" />
        </mxCell>
        <mxCell id="2IcstIMDx6z1O8IG73S6-98" value="Entrega de pagare semanal&lt;br&gt;envio de archivos con documentos de desembolso" style="rounded=0;whiteSpace=wrap;html=1;" parent="QS1uCL1BBU3N2EwGceVu-0" vertex="1">
          <mxGeometry x="200" y="105" width="145" height="105" as="geometry" />
        </mxCell>
        <mxCell id="2IcstIMDx6z1O8IG73S6-95" value="" style="edgeStyle=orthogonalEdgeStyle;rounded=0;orthogonalLoop=1;jettySize=auto;html=1;" parent="QS1uCL1BBU3N2EwGceVu-0" source="2IcstIMDx6z1O8IG73S6-97" target="2IcstIMDx6z1O8IG73S6-98" edge="1">
          <mxGeometry relative="1" as="geometry" />
        </mxCell>
        <mxCell id="2IcstIMDx6z1O8IG73S6-99" value="FIN" style="ellipse;whiteSpace=wrap;html=1;aspect=fixed;" parent="QS1uCL1BBU3N2EwGceVu-0" vertex="1">
          <mxGeometry x="82.5" y="357.5" width="40" height="40" as="geometry" />
        </mxCell>
        <mxCell id="z_J2zLSmfvoNL0WnO1Q8-12" style="edgeStyle=orthogonalEdgeStyle;rounded=0;orthogonalLoop=1;jettySize=auto;html=1;entryX=0.5;entryY=0;entryDx=0;entryDy=0;" parent="QS1uCL1BBU3N2EwGceVu-0" source="z_J2zLSmfvoNL0WnO1Q8-10" target="2IcstIMDx6z1O8IG73S6-99" edge="1">
          <mxGeometry relative="1" as="geometry" />
        </mxCell>
        <mxCell id="z_J2zLSmfvoNL0WnO1Q8-10" value="Envió expediente de crédito(Jefe de Oficina)" style="rounded=0;whiteSpace=wrap;html=1;" parent="QS1uCL1BBU3N2EwGceVu-0" vertex="1">
          <mxGeometry x="30" y="255" width="145" height="35" as="geometry" />
        </mxCell>
        <mxCell id="2IcstIMDx6z1O8IG73S6-96" value="" style="edgeStyle=orthogonalEdgeStyle;rounded=0;orthogonalLoop=1;jettySize=auto;html=1;" parent="QS1uCL1BBU3N2EwGceVu-0" source="2IcstIMDx6z1O8IG73S6-97" target="z_J2zLSmfvoNL0WnO1Q8-10" edge="1">
          <mxGeometry relative="1" as="geometry" />
        </mxCell>
        <mxCell id="z_J2zLSmfvoNL0WnO1Q8-11" value="Envio de carpetas físicas con documentos de desembolso a Archivos de crédito" style="rounded=0;whiteSpace=wrap;html=1;" parent="QS1uCL1BBU3N2EwGceVu-0" vertex="1">
          <mxGeometry x="200" y="220" width="145" height="105" as="geometry" />
        </mxCell>
        <mxCell id="z_J2zLSmfvoNL0WnO1Q8-13" value="" style="edgeStyle=orthogonalEdgeStyle;rounded=0;orthogonalLoop=1;jettySize=auto;html=1;" parent="QS1uCL1BBU3N2EwGceVu-0" source="z_J2zLSmfvoNL0WnO1Q8-10" target="z_J2zLSmfvoNL0WnO1Q8-11" edge="1">
          <mxGeometry relative="1" as="geometry" />
        </mxCell>
        <mxCell id="QS1uCL1BBU3N2EwGceVu-1" value="&lt;font style=&quot;font-size: 24px&quot;&gt;Elaborado por:&lt;br&gt;&lt;br&gt;&lt;br&gt;&lt;br&gt;__________________&lt;br&gt;Fabrica de crédito&lt;/font&gt;" style="text;html=1;strokeColor=none;fillColor=none;align=center;verticalAlign=middle;whiteSpace=wrap;rounded=0;" parent="2IcstIMDx6z1O8IG73S6-1" vertex="1">
          <mxGeometry x="462.5" y="1970" width="190" height="116" as="geometry" />
        </mxCell>
        <mxCell id="QS1uCL1BBU3N2EwGceVu-2" value="&lt;font style=&quot;font-size: 24px&quot;&gt;Aprobado por:&lt;br&gt;&lt;br&gt;&lt;br&gt;&lt;br&gt;__________________&lt;br&gt;Ing. Santos Chango&lt;/font&gt;" style="text;html=1;strokeColor=none;fillColor=none;align=center;verticalAlign=middle;whiteSpace=wrap;rounded=0;" parent="2IcstIMDx6z1O8IG73S6-1" vertex="1">
          <mxGeometry x="1260" y="1970" width="170" height="96" as="geometry" />
        </mxCell>
        <mxCell id="QS1uCL1BBU3N2EwGceVu-3" value="&lt;b&gt;&lt;font style=&quot;font-size: 18px&quot;&gt;FLUJOGRAMA DE PROCESO PROCESO DE CONCESION DE CRÉDITO&lt;/font&gt;&lt;/b&gt;" style="text;html=1;strokeColor=none;fillColor=none;align=center;verticalAlign=middle;whiteSpace=wrap;rounded=0;" parent="2IcstIMDx6z1O8IG73S6-1" vertex="1">
          <mxGeometry x="780" y="-60" width="650" height="20" as="geometry" />
        </mxCell>
        <mxCell id="QS1uCL1BBU3N2EwGceVu-5" value="10 min" style="text;html=1;strokeColor=none;fillColor=none;align=center;verticalAlign=middle;whiteSpace=wrap;rounded=0;" parent="2IcstIMDx6z1O8IG73S6-1" vertex="1">
          <mxGeometry x="60" y="1585" width="40" height="20" as="geometry" />
        </mxCell>
      </root>
    </mxGraphModel>
  </diagram>
  <diagram name="Page-3" id="o7mpC6CKWTz_aOMdSpHJ">
    <mxGraphModel dx="1278" dy="579" grid="1" gridSize="10" guides="1" tooltips="1" connect="1" arrows="1" fold="1" page="1" pageScale="1" pageWidth="827" pageHeight="1169" math="0" shadow="0">
      <root>
        <mxCell id="LiZlha1rvyJZhlOf8aYj-0" />
        <mxCell id="LiZlha1rvyJZhlOf8aYj-1" parent="LiZlha1rvyJZhlOf8aYj-0" />
        <mxCell id="TdaoM22D6wqHXI2EiSqw-0" value="ANALISTA DE CRÉDITO" style="swimlane;" parent="LiZlha1rvyJZhlOf8aYj-1" vertex="1">
          <mxGeometry x="280" y="140" width="200" height="200" as="geometry" />
        </mxCell>
        <mxCell id="TdaoM22D6wqHXI2EiSqw-1" value="ASESOR DE CRÉDITO" style="swimlane;" parent="LiZlha1rvyJZhlOf8aYj-1" vertex="1">
          <mxGeometry x="480" y="140" width="200" height="200" as="geometry" />
        </mxCell>
        <mxCell id="TdaoM22D6wqHXI2EiSqw-2" value="FABRICA DE CRÉDITO" style="swimlane;" parent="LiZlha1rvyJZhlOf8aYj-1" vertex="1">
          <mxGeometry x="680" y="140" width="200" height="200" as="geometry" />
        </mxCell>
        <mxCell id="xrKxWQuKkAER9i74xEUy-0" value="COMITÉ DE CRÉDITO" style="swimlane;" parent="LiZlha1rvyJZhlOf8aYj-1" vertex="1">
          <mxGeometry x="880" y="140" width="200" height="200" as="geometry" />
        </mxCell>
        <mxCell id="3Hv5PKbv5TtfmlJO94tR-0" value="ARCHIVO" style="swimlane;" parent="LiZlha1rvyJZhlOf8aYj-1" vertex="1">
          <mxGeometry x="1080" y="140" width="200" height="200" as="geometry" />
        </mxCell>
      </root>
    </mxGraphModel>
  </diagram>
</mxfile>
